<?xml version="1.0" encoding="UTF-8"?>
<svg version="1.1" xmlns="http://www.w3.org/2000/svg" width="1000" height="420">
<path d="M0 0 C330 0 660 0 1000 0 C1000 138.6 1000 277.2 1000 420 C670 420 340 420 0 420 C0 281.4 0 142.8 0 0 Z " fill="#D5242D" transform="translate(0,0)"/>
<path d="M0 0 C84.48 0 168.96 0 256 0 C256.020625 42.054375 256.04125 84.10875 256.0625 127.4375 C256.071604 140.74118896 256.08070801 154.04487793 256.09008789 167.75170898 C256.09460449 183.93371582 256.09460449 183.93371582 256.09544373 191.4969635 C256.0963795 196.80609073 256.10006131 202.11520785 256.10557556 207.42433167 C256.11258438 214.18235318 256.11449772 220.9403576 256.11307228 227.69838345 C256.11337065 230.18738165 256.11537425 232.67638033 256.11921513 235.16537559 C256.12413925 238.5099223 256.12300836 241.8544115 256.12025452 245.19895935 C256.12316718 246.18795762 256.12607985 247.17695589 256.12908077 248.19592381 C256.1270899 249.08646143 256.12509903 249.97699905 256.12304783 250.89452267 C256.12342755 251.66877242 256.12380727 252.44302217 256.1241985 253.24073404 C256 255 256 255 255 256 C253.63429209 256.09641457 252.26362947 256.12371929 250.89452267 256.12304783 C249.55871623 256.12603414 249.55871623 256.12603414 248.19592381 256.12908077 C247.20692554 256.12616811 246.21792727 256.12325544 245.19895935 256.12025452 C244.15932541 256.12111053 243.11969147 256.12196655 242.04855347 256.12284851 C238.52510915 256.12451455 235.00171151 256.11896257 231.47827148 256.11352539 C228.92501101 256.11321932 226.37175046 256.1133521 223.81849003 256.11389065 C217.65212526 256.11409423 211.48577796 256.10979393 205.31941697 256.10338932 C198.19084951 256.0962061 191.06228717 256.09539549 183.93371582 256.09460449 C165.10164157 256.08934822 146.26957057 256.0753872 127.4375 256.0625 C85.383125 256.041875 43.32875 256.02125 0 256 C0 171.52 0 87.04 0 0 Z " fill="#D62630" transform="translate(157,134)"/>
<path d="M0 0 C1.258125 -0.020625 2.51625 -0.04125 3.8125 -0.0625 C4.52019531 -0.07410156 5.22789062 -0.08570313 5.95703125 -0.09765625 C8 0 8 0 11 1 C11 1.66 11 2.32 11 3 C13.97 3.495 13.97 3.495 17 4 C17 4.66 17 5.32 17 6 C17.73605469 6.10441406 18.47210938 6.20882812 19.23046875 6.31640625 C27.03172807 8.24196391 32.6386675 15.54592173 37.56640625 21.47265625 C39.29551414 24.52097452 39.27542531 26.549672 39 30 C39.66 30 40.32 30 41 30 C41.66 33.3 42.32 36.6 43 40 C43.66 40 44.32 40 45 40 C45.33 38.68 45.66 37.36 46 36 C48.1875 35.25 48.1875 35.25 51 35 C55.72884666 37.70219809 57.18623664 40.99055835 59 46 C59.35449219 46.84046875 59.70898438 47.6809375 60.07421875 48.546875 C61.36334156 53.35524869 61.21223426 57.92277799 61.125 62.875 C61.11597656 63.84953125 61.10695313 64.8240625 61.09765625 65.828125 C61.07421623 68.21900728 61.04140442 70.60937261 61 73 C60.34 73 59.68 73 59 73 C58.81824219 73.88751953 58.81824219 73.88751953 58.6328125 74.79296875 C55.84424615 87.94213163 49.2874587 93.03169464 38.08984375 100.33203125 C33.4822704 102.81930536 29.18270986 103.64754369 24 104 C23.27941406 104.05671875 22.55882812 104.1134375 21.81640625 104.171875 C16.38639922 104.38357118 10.88369013 103.44184507 6 101 C6 100.34 6 99.68 6 99 C4.46085937 98.66548828 4.46085937 98.66548828 2.890625 98.32421875 C-1.2879327 97.12388282 -4.14239469 94.77193341 -7.25 91.8125 C-8.0234375 91.12704102 -8.0234375 91.12704102 -8.8125 90.42773438 C-13.55576455 86.02065481 -16.003089 81.27049254 -16.43359375 74.73046875 C-16.4560306 73.2163115 -16.45676873 71.70170088 -16.4375 70.1875 C-16.43427734 69.39939941 -16.43105469 68.61129883 -16.42773438 67.79931641 C-16.27987348 61.60318004 -15.0672398 56.44982786 -12 51 C-11.34 51 -10.68 51 -10 51 C-10.13850705 47.54133208 -10.28704727 44.08316725 -10.4375 40.625 C-10.47681641 39.64015625 -10.51613281 38.6553125 -10.55664062 37.640625 C-10.61948242 36.22910156 -10.61948242 36.22910156 -10.68359375 34.7890625 C-10.72025146 33.91975098 -10.75690918 33.05043945 -10.79467773 32.15478516 C-10.87401544 29.9516738 -10.87401544 29.9516738 -12 28 C-12.04022391 25.6670134 -12.04320247 23.33293334 -12 21 C-7.46561612 20.41461847 -3.58955136 19.98038646 0.375 22.5234375 C2.32976909 24.28416701 4.16101527 26.12044943 6 28 C6.66 28.33 7.32 28.66 8 29 C6.99999309 20.31337282 5.42172684 11.42172684 -1 5 C-0.625 2.375 -0.625 2.375 0 0 Z " fill="#F9E6E7" transform="translate(264,206)"/>
<path d="M0 0 C84.48 0 168.96 0 256 0 C256.020625 42.054375 256.04125 84.10875 256.0625 127.4375 C256.071604 140.74118896 256.08070801 154.04487793 256.09008789 167.75170898 C256.09460449 183.93371582 256.09460449 183.93371582 256.09544373 191.4969635 C256.0963795 196.80609073 256.10006131 202.11520785 256.10557556 207.42433167 C256.11258438 214.18235318 256.11449772 220.9403576 256.11307228 227.69838345 C256.11337065 230.18738165 256.11537425 232.67638033 256.11921513 235.16537559 C256.12413925 238.5099223 256.12300836 241.8544115 256.12025452 245.19895935 C256.12316718 246.18795762 256.12607985 247.17695589 256.12908077 248.19592381 C256.1270899 249.08646143 256.12509903 249.97699905 256.12304783 250.89452267 C256.12342755 251.66877242 256.12380727 252.44302217 256.1241985 253.24073404 C256 255 256 255 255 256 C253.63429209 256.09641457 252.26362947 256.12371929 250.89452267 256.12304783 C249.55871623 256.12603414 249.55871623 256.12603414 248.19592381 256.12908077 C247.20692554 256.12616811 246.21792727 256.12325544 245.19895935 256.12025452 C244.15932541 256.12111053 243.11969147 256.12196655 242.04855347 256.12284851 C238.52510915 256.12451455 235.00171151 256.11896257 231.47827148 256.11352539 C228.92501101 256.11321932 226.37175046 256.1133521 223.81849003 256.11389065 C217.65212526 256.11409423 211.48577796 256.10979393 205.31941697 256.10338932 C198.19084951 256.0962061 191.06228717 256.09539549 183.93371582 256.09460449 C165.10164157 256.08934822 146.26957057 256.0753872 127.4375 256.0625 C85.383125 256.041875 43.32875 256.02125 0 256 C0 171.52 0 87.04 0 0 Z M3 3 C3 85.5 3 168 3 253 C85.5 253 168 253 253 253 C253 170.5 253 88 253 3 C170.5 3 88 3 3 3 Z " fill="#F2BBBD" transform="translate(157,134)"/>
<path d="M0 0 C2.47923801 -0.02685095 4.9581884 -0.04676547 7.4375 -0.0625 C8.14455078 -0.07087891 8.85160156 -0.07925781 9.58007812 -0.08789062 C11.38693559 -0.09653588 13.19387603 -0.05220011 15 0 C17.36587867 2.36587867 16.90283688 8.56025043 17.25 11.91796875 C17.32750837 15.77842521 17.32750837 15.77842521 19 19 C19.40612526 21.54347061 19.75500333 24.069361 20.0625 26.625 C20.15337891 27.32496094 20.24425781 28.02492188 20.33789062 28.74609375 C20.88735943 33.19968303 21.0883204 37.51332347 21 42 C21.99 42 22.98 42 24 42 C24.12375 40.71738281 24.2475 39.43476563 24.375 38.11328125 C24.93612375 33.06020383 25.93380586 28.15423988 27 23.1875 C28.40566106 16.4611654 29.48743524 9.8995372 29.82421875 3.01953125 C30 1 30 1 31 0 C33.69654854 -0.07319621 36.36691458 -0.09242537 39.0625 -0.0625 C39.82111328 -0.05798828 40.57972656 -0.05347656 41.36132812 -0.04882812 C43.24091871 -0.0370068 45.12046899 -0.01907078 47 0 C47.17015625 1.093125 47.3403125 2.18625 47.515625 3.3125 C49.58731827 16.55710946 51.78372726 29.77878677 54 43 C55.98 28.81 57.96 14.62 60 0 C65.28 0 70.56 0 76 0 C75.34039796 4.33452766 74.67431523 8.66775558 74 13 C73.83242188 14.08539063 73.66484375 15.17078125 73.4921875 16.2890625 C73.32976562 17.30742187 73.16734375 18.32578125 73 19.375 C72.855625 20.29023438 72.71125 21.20546875 72.5625 22.1484375 C71.90054399 25.50418672 70.9655401 28.71783418 70 32 C68.98681024 35.6005444 67.99309912 39.20637027 67 42.8125 C66.73960937 43.74642578 66.47921875 44.68035156 66.2109375 45.64257812 C64.54058954 51.72078874 63.14706188 57.80164874 62 64 C59.18743719 64.02684312 56.37512759 64.04676188 53.5625 64.0625 C52.35883789 64.07506836 52.35883789 64.07506836 51.13085938 64.08789062 C49.08704779 64.0965143 47.04316098 64.0522815 45 64 C43.24211028 62.24211028 43.74510892 59.64073942 43.625 57.25 C43.22412762 51.3403652 42.13100087 45.90208153 40.69921875 40.16796875 C39.66424528 35.47878728 39.27817896 30.78659665 39 26 C38.34 26 37.68 26 37 26 C36.97421875 26.53625 36.9484375 27.0725 36.921875 27.625 C36.46456358 33.94421234 35.12058556 39.90060638 33.51928711 46.01000977 C32.2205525 50.99333329 31.20596507 55.97006949 30.39453125 61.05859375 C30 63 30 63 29 64 C26.30345146 64.07319621 23.63308542 64.09242537 20.9375 64.0625 C20.17888672 64.05798828 19.42027344 64.05347656 18.63867188 64.04882812 C16.75908129 64.0370068 14.87953101 64.01907078 13 64 C9.8734721 51.79933575 6.81693509 39.61108736 4.33789062 27.26049805 C3.51939893 23.24335823 2.56156864 19.3920037 1.25 15.5 C-0.42833293 10.36520844 -0.27459396 5.34949722 0 0 Z " fill="#FCF4F5" transform="translate(673,231)"/>
<path d="M0 0 C5.28 0 10.56 0 16 0 C17.05505074 6.96333491 18.04676396 13.84572102 18.5 20.875 C18.74249749 24.50805333 19.0968979 27.86371963 20.0625 31.375 C21.04937919 35.19093287 21.16260054 38.0975871 21 42 C21.66 42 22.32 42 23 42 C23.12117187 41.02160156 23.24234375 40.04320312 23.3671875 39.03515625 C25.89173496 19.10826504 25.89173496 19.10826504 28 17 C28.28737582 14.32238724 28.44831459 11.64429854 28.62109375 8.95703125 C29 6 29 6 31 0 C36.28 0 41.56 0 47 0 C49.57637649 13.96996378 51.74491027 27.8472119 53 42 C54.94220887 40.05779113 54.63436298 36.53723994 54.9375 33.875 C55.11154031 32.42312441 55.28603108 30.97130276 55.4609375 29.51953125 C55.54956055 28.77396973 55.63818359 28.0284082 55.72949219 27.26025391 C56.15653625 23.69204635 56.60315348 20.12668066 57.0625 16.5625 C57.29646484 14.70818359 57.29646484 14.70818359 57.53515625 12.81640625 C58 10 58 10 59 9 C59.23192865 7.48530552 59.41215238 5.96245438 59.5625 4.4375 C59.706875 2.973125 59.85125 1.50875 60 0 C64.95 0 69.9 0 75 0 C74.35609825 6.76443016 73.23167013 13.29534114 71.8125 19.9375 C71.5961792 20.96077393 71.3798584 21.98404785 71.15698242 23.03833008 C69.43739621 31.1019023 67.64499335 39.14888697 65.8125 47.1875 C65.56282471 48.29150146 65.31314941 49.39550293 65.0559082 50.53295898 C64.69758911 52.08478882 64.69758911 52.08478882 64.33203125 53.66796875 C64.12296143 54.57828857 63.9138916 55.4886084 63.69848633 56.42651367 C63 59 63 59 61 64 C55.72 64 50.44 64 45 64 C43.5625 56.5625 43.5625 56.5625 43.11547852 54.21704102 C42.68212724 50.82171613 42.68212724 50.82171613 41 48 C40.70297986 46.37095732 40.46187054 44.73162369 40.24609375 43.08984375 C40.11396484 42.10048828 39.98183594 41.11113281 39.84570312 40.09179688 C39.71099609 39.05087891 39.57628906 38.00996094 39.4375 36.9375 C39.29892578 35.89271484 39.16035156 34.84792969 39.01757812 33.77148438 C38.67460733 31.18146356 38.33559369 28.59098531 38 26 C36.25121236 29.11322635 35.51529055 31.9082567 34.9296875 35.421875 C34.75566406 36.44667969 34.58164062 37.47148437 34.40234375 38.52734375 C34.22832031 39.59082031 34.05429687 40.65429688 33.875 41.75 C33.69324219 42.82894531 33.51148438 43.90789062 33.32421875 45.01953125 C32.87708755 47.67878521 32.43590482 50.33888675 32 53 C31.34 53 30.68 53 30 53 C29.67 56.3 29.34 59.6 29 63 C23.39 63 17.78 63 12 63 C12 61.02 12 59.04 12 57 C11.34 57 10.68 57 10 57 C9.92483154 56.43716309 9.84966309 55.87432617 9.7722168 55.29443359 C8.38110051 44.97514768 6.92307401 34.76330116 4.55078125 24.6171875 C4 22 4 22 4 19 C3.34 19 2.68 19 2 19 C1.66225668 16.77149723 1.3299813 14.54216533 1 12.3125 C0.814375 11.07113281 0.62875 9.82976562 0.4375 8.55078125 C0 5 0 5 0 0 Z " fill="#FCF4F4" transform="translate(534,231)"/>
<path d="M0 0 C0.87454834 0.00523682 1.74909668 0.01047363 2.65014648 0.01586914 C3.59438477 0.0190918 4.53862305 0.02231445 5.51147461 0.02563477 C6.50469727 0.03401367 7.49791992 0.04239258 8.52124023 0.05102539 C9.51833008 0.05553711 10.51541992 0.06004883 11.54272461 0.06469727 C14.01478872 0.07652532 16.48673541 0.0930069 18.95874023 0.11352539 C19.20108398 1.22469727 19.44342773 2.33586914 19.69311523 3.48071289 C21.33783605 10.84425642 23.01419099 17.90726439 26.01733398 24.85571289 C28.55015384 30.93027668 30.07754641 37.33174986 31.41967773 43.75805664 C32.23770224 47.33246805 33.30877861 50.83196874 34.37280273 54.34008789 C34.95874023 57.11352539 34.95874023 57.11352539 34.95874023 64.11352539 C30.00874023 64.11352539 25.05874023 64.11352539 19.95874023 64.11352539 C19.46374023 61.14352539 19.46374023 61.14352539 18.95874023 58.11352539 C18.29874023 58.11352539 17.63874023 58.11352539 16.95874023 58.11352539 C16.46374023 53.65852539 16.46374023 53.65852539 15.95874023 49.11352539 C11.00874023 49.44352539 6.05874023 49.77352539 0.95874023 50.11352539 C0.52561523 52.74321289 0.52561523 52.74321289 0.08374023 55.42602539 C-0.52121418 59.09896288 -0.94410192 60.96778862 -3.04125977 64.11352539 C-5.6682304 64.33489932 -8.05019941 64.39514564 -10.66625977 64.30102539 C-11.37266602 64.28749023 -12.07907227 64.27395508 -12.80688477 64.26000977 C-14.55200104 64.22463579 -16.29672584 64.1708276 -18.04125977 64.11352539 C-17.40167638 58.99685834 -16.3417646 54.10365214 -15.04125977 49.11352539 C-14.63262665 47.45395412 -14.2264919 45.79376621 -13.82250977 44.13305664 C-13.39546535 42.39736998 -12.96838155 40.66169301 -12.54125977 38.92602539 C-12.32856445 38.05010742 -12.11586914 37.17418945 -11.89672852 36.27172852 C-10.85696655 32.06483885 -9.69463983 28.12582271 -8.04125977 24.11352539 C-7.66816078 22.45530766 -7.33424999 20.78775525 -7.04125977 19.11352539 C-6.53004879 16.38438331 -6.02304101 14.06851434 -4.97875977 11.48852539 C-4.06443173 9.17222769 -3.75680643 7.32250055 -3.47875977 4.86352539 C-2.930362 0.16297313 -2.930362 0.16297313 0 0 Z " fill="#FBF1F1" transform="translate(496.041259765625,230.886474609375)"/>
<path d="M0 0 C0.83265381 0.00523682 1.66530762 0.01047363 2.52319336 0.01586914 C3.42231445 0.0190918 4.32143555 0.02231445 5.24780273 0.02563477 C6.66609375 0.03820312 6.66609375 0.03820312 8.11303711 0.05102539 C9.06243164 0.05553711 10.01182617 0.06004883 10.98999023 0.06469727 C13.34356776 0.07652429 15.69702188 0.09300514 18.05053711 0.11352539 C20.45232995 6.1180075 22.11902821 12.06305535 23.55053711 18.36352539 C23.98506412 20.22819471 24.41995768 22.09277865 24.85522461 23.95727539 C25.06115234 24.84672852 25.26708008 25.73618164 25.47924805 26.65258789 C27.15525225 33.87229829 28.93906709 40.94651234 31.35522461 47.95336914 C33.11323124 53.41504144 34.05053711 58.3633231 34.05053711 64.11352539 C29.10053711 64.11352539 24.15053711 64.11352539 19.05053711 64.11352539 C17.2544871 58.95964275 15.95613758 54.54712823 15.05053711 49.11352539 C9.77053711 49.11352539 4.49053711 49.11352539 -0.94946289 49.11352539 C-1.27946289 53.40352539 -1.60946289 57.69352539 -1.94946289 62.11352539 C-2.60946289 62.11352539 -3.26946289 62.11352539 -3.94946289 62.11352539 C-3.94946289 62.77352539 -3.94946289 63.43352539 -3.94946289 64.11352539 C-8.89946289 64.11352539 -13.84946289 64.11352539 -18.94946289 64.11352539 C-18.39403404 58.50931066 -17.31166043 53.56132648 -15.51196289 48.23852539 C-13.86581621 43.17778361 -12.47431618 38.24520242 -11.53930664 33.00024414 C-4.85412014 0.28267575 -4.85412014 0.28267575 0 0 Z " fill="#FCF2F2" transform="translate(768.949462890625,230.886474609375)"/>
<path d="M0 0 C1.48790039 0.01450195 1.48790039 0.01450195 3.00585938 0.02929688 C10.22237861 0.1424393 10.22237861 0.1424393 12.5625 1.3125 C12.2325 4.9425 11.9025 8.5725 11.5625 12.3125 C7.5625 13.3125 7.5625 13.3125 4.5625 12.3125 C2.67037263 12.09070215 0.77365528 11.90635985 -1.125 11.75 C-2.11886719 11.66621094 -3.11273437 11.58242187 -4.13671875 11.49609375 C-4.89597656 11.43550781 -5.65523437 11.37492188 -6.4375 11.3125 C-8.14051353 14.54070236 -9.08413099 16.61746575 -8.4375 20.3125 C-5.10231427 23.862859 -1.0555081 25.4423349 3.34375 27.3046875 C7.22774928 29.06889844 10.5354284 31.2854284 13.5625 34.3125 C15.99263997 41.29027031 15.68134077 47.01191971 13.3125 54 C10.40571691 59.50212514 6.37649726 61.98011149 0.5625 63.77734375 C-3.51079312 64.50395984 -7.49369388 64.60333304 -11.625 64.625 C-12.78358521 64.63321777 -12.78358521 64.63321777 -13.96557617 64.64160156 C-18.49645282 64.58494729 -22.17357531 64.01942998 -26.4375 62.3125 C-26.1075 59.3425 -25.7775 56.3725 -25.4375 53.3125 C-24.7775 53.3125 -24.1175 53.3125 -23.4375 53.3125 C-23.4375 52.3225 -23.4375 51.3325 -23.4375 50.3125 C-22.80658447 50.31773682 -22.17566895 50.32297363 -21.52563477 50.32836914 C-18.68376653 50.34907826 -15.84191412 50.36214066 -13 50.375 C-12.00677734 50.38337891 -11.01355469 50.39175781 -9.99023438 50.40039062 C-9.04599609 50.40361328 -8.10175781 50.40683594 -7.12890625 50.41015625 C-5.81708374 50.41801147 -5.81708374 50.41801147 -4.47875977 50.42602539 C-2.44309794 50.54034809 -2.44309794 50.54034809 -1.4375 49.3125 C-0.68505499 46.4849011 -0.68505499 46.4849011 -1.4375 43.3125 C-3.38350802 41.71399341 -5.36572712 40.56740629 -7.58984375 39.390625 C-9.4375 38.3125 -9.4375 38.3125 -10.4375 36.3125 C-11.64481771 35.704519 -12.87912487 35.1494541 -14.125 34.625 C-19.93774666 31.83863849 -23.92687127 27.23848852 -26.4375 21.3125 C-27.21599957 17.33017527 -27.12607842 13.8022381 -25.41015625 10.08984375 C-19.2273772 0.92699945 -10.43919366 -0.31380342 0 0 Z " fill="#FBF3F3" transform="translate(638.4375,230.6875)"/>
<path d="M0 0 C8.8790625 -0.0309375 8.8790625 -0.0309375 17.9375 -0.0625 C19.80784912 -0.071604 21.67819824 -0.08070801 23.60522461 -0.09008789 C25.07926359 -0.09300709 26.55330337 -0.09555564 28.02734375 -0.09765625 C28.79953247 -0.10277222 29.57172119 -0.10788818 30.36730957 -0.11315918 C32.24525187 -0.11346974 34.12309253 -0.06233569 36 0 C37 1 37 1 37.09765625 3.72265625 C37.06510417 6.81510417 37.03255208 9.90755208 37 13 C29.74 13 22.48 13 15 13 C15 17.62 15 22.24 15 27 C21.93 27 28.86 27 36 27 C36 31.29 36 35.58 36 40 C29.4 40 22.8 40 16 40 C16 48.25 16 56.5 16 65 C10.72 65 5.44 65 0 65 C0 43.55 0 22.1 0 0 Z " fill="#FAEFEE" transform="translate(809,230)"/>
<path d="M0 0 C3 1 3 1 4.16796875 2.6953125 C8.48194225 12.97612291 7.35847696 24.06231656 7 35 C8.98 35 10.96 35 13 35 C13.18755859 34.13375 13.18755859 34.13375 13.37890625 33.25 C14.00756942 30.97257869 14.85326718 29.09481963 15.9375 27 C16.27652344 26.34 16.61554688 25.68 16.96484375 25 C17.30644531 24.34 17.64804687 23.68 18 23 C18.66851659 21.66759323 19.33571747 20.33452274 20 19 C20.99 19.33 21.98 19.66 23 20 C25.06744711 30.77073251 25.47156588 43.76442228 21 54 C17.17186837 59.61966343 11.76915594 65.99414166 4.8515625 67.453125 C2.90972661 67.71203645 0.95437838 67.86521528 -1 68 C-1 68.66 -1 69.32 -1 70 C-4.47325181 71.1577506 -7.36067448 71.06866652 -11 71 C-11.95850367 65.31081693 -12.2155825 59.76493126 -12.25 54 C-12.270625 53.13632812 -12.29125 52.27265625 -12.3125 51.3828125 C-12.34673812 45.75064174 -11.52997615 42.02856301 -9 37 C-8.50891514 35.65010974 -8.02711891 34.29672674 -7.5625 32.9375 C-6.21031934 29.23152339 -4.18762345 26.28143518 -2 23 C-0.70440506 18.33933631 -0.66890815 13.49396116 -0.4375 8.6875 C-0.39431641 7.85154297 -0.35113281 7.01558594 -0.30664062 6.15429688 C-0.20114693 4.10303065 -0.10012685 2.0515352 0 0 Z " fill="#D62A32" transform="translate(294,232)"/>
<path d="M0 0 C3.82601307 1.45124634 5.22329124 3.35774704 7 7 C7 7.99 7 8.98 7 10 C7.66 10 8.32 10 9 10 C11.49533209 17.48599626 10.62944351 26.66523654 8 34 C7.53624352 35.81111999 7.07843303 37.62376789 6.625 39.4375 C5.49696171 43.61754037 4.0768609 47.27629276 1.96484375 51.05078125 C-1.31324454 57.6733159 -1.24106386 63.62547287 -1.125 70.875 C-1.11597656 71.94492187 -1.10695313 73.01484375 -1.09765625 74.1171875 C-1.07419342 76.74502439 -1.04136459 79.37239406 -1 82 C-6.66313502 82.13178218 -9.5627478 80.4181272 -14 77 C-19.33085374 71.54799049 -23.17623482 65.74294981 -23.4375 58 C-23.17856679 51.96130771 -21.1493536 47.22546408 -18.40625 41.9140625 C-16.39938055 37.22262258 -16.67152084 32.58352699 -16.8125 27.5625 C-16.83280273 26.17901367 -16.83280273 26.17901367 -16.85351562 24.76757812 C-16.88859047 22.51109617 -16.93773613 20.25586774 -17 18 C-12.19515032 20.16264764 -10.57547956 23.46568777 -7.87890625 27.8828125 C-6.16577357 30.28904819 -6.16577357 30.28904819 -3.27734375 30.3046875 C-2.52582031 30.20414063 -1.77429688 30.10359375 -1 30 C2.11002517 20.28117135 1.59869757 9.99185981 0 0 Z " fill="#D62932" transform="translate(277,218)"/>
<path d="M0 0 C0.66 0 1.32 0 2 0 C2 81.51 2 163.02 2 247 C84.5 247 167 247 252 247 C252 247.33 252 247.66 252 248 C168.84 248.33 85.68 248.66 0 249 C0 166.83 0 84.66 0 0 Z " fill="#F4CDCD" transform="translate(158,140)"/>
<path d="M0 0 C1.99954746 -0.04254356 4.00041636 -0.04080783 6 0 C7 1 7 1 7.0625 4.5625 C7.041875 5.696875 7.02125 6.83125 7 8 C7.92619141 7.96519531 7.92619141 7.96519531 8.87109375 7.9296875 C17.1975108 7.75226004 24.1518769 9.32450349 32 12 C33.66088045 12.36106097 35.32618981 12.70462173 37 13 C37 13.66 37 14.32 37 15 C38.32 15.33 39.64 15.66 41 16 C41 16.66 41 17.32 41 18 C42.65 18.33 44.3 18.66 46 19 C46.625 20.8125 46.625 20.8125 47 23 C46.01 24.485 46.01 24.485 45 26 C41.65626525 25.44271087 38.96687001 24.64826111 36 23 C36 22.34 36 21.68 36 21 C35.319375 20.896875 34.63875 20.79375 33.9375 20.6875 C31 20 31 20 27.875 18.53125 C23.68567577 16.70058854 19.58248466 16.23467509 15.0625 15.8125 C14.28326172 15.73064453 13.50402344 15.64878906 12.70117188 15.56445312 C10.80179203 15.36635829 8.90101238 15.18176159 7 15 C7.020625 15.804375 7.04125 16.60875 7.0625 17.4375 C7 20 7 20 6 21 C3.66702567 21.04092937 1.33294775 21.04241723 -1 21 C-1 18.69 -1 16.38 -1 14 C-1.99 14.165 -2.98 14.33 -4 14.5 C-8.02732942 15.08474517 -11.93474623 15.07132024 -16 15 C-16 15.66 -16 16.32 -16 17 C-16.70125 17.23074219 -17.4025 17.46148437 -18.125 17.69921875 C-22.89906352 19.34030309 -27.19588944 20.9463667 -31.375 23.8125 C-34.64876177 26.02195239 -34.64876177 26.02195239 -38 25.8125 C-38.66 25.544375 -39.32 25.27625 -40 25 C-40.33 23.35 -40.66 21.7 -41 20 C-34.82574243 14.94833471 -27.14764937 11 -19 11 C-19 10.34 -19 9.68 -19 9 C-12.65176798 6.69155199 -6.70518586 6.80181717 0 7 C0 4.69 0 2.38 0 0 Z " fill="#F9E5E6" transform="translate(281,179)"/>
<path d="M0 0 C0.99 0.33 1.98 0.66 3 1 C3 1.66 3 2.32 3 3 C3.7425 3.144375 4.485 3.28875 5.25 3.4375 C7.52027739 3.90187492 9.75759479 4.41863569 12 5 C12 5.66 12 6.32 12 7 C12.58910156 7.1340625 13.17820312 7.268125 13.78515625 7.40625 C16 8 16 8 19.4375 9.5 C25.07511729 11.69300103 31.01633082 11.73547804 37 12 C36.979375 11.195625 36.95875 10.39125 36.9375 9.5625 C37 7 37 7 38 6 C41 5.875 41 5.875 44 6 C45 7 45 7 45.0625 9.5625 C45.041875 10.366875 45.02125 11.17125 45 12 C47.72947644 11.69003741 50.45855985 11.37712025 53.1875 11.0625 C53.95642578 10.97548828 54.72535156 10.88847656 55.51757812 10.79882812 C59.38772828 10.35035579 63.19186624 9.8470999 67 9 C67 8.34 67 7.68 67 7 C68.2375 6.566875 69.475 6.13375 70.75 5.6875 C73.33718313 4.73719899 75.01413165 3.98869468 77.1875 2.25 C79 1 79 1 81.75 1.3125 C82.4925 1.539375 83.235 1.76625 84 2 C84.625 4.3125 84.625 4.3125 85 7 C82.586067 10.6208995 81.09269868 10.58686552 77.0078125 11.47265625 C74.3475024 12.17137583 72.34260736 13.57158088 70 15 C61.2664707 18.43801247 53.32806047 19.14938175 44 19 C44 21.31 44 23.62 44 26 C42.02 26 40.04 26 38 26 C38 23.69 38 21.38 38 19 C37.3915625 19.04640625 36.783125 19.0928125 36.15625 19.140625 C30.0088971 19.3937513 24.49965325 18.65550727 18.5625 17.1875 C17.53382813 16.9395166 17.53382813 16.9395166 16.484375 16.68652344 C12.68732314 15.69232495 10.00128494 14.50553698 7 12 C4.67518826 10.98034573 2.34205301 9.97940398 0 9 C-0.99 8.34 -1.98 7.68 -3 7 C-2.25 2.25 -2.25 2.25 0 0 Z " fill="#FBECEB" transform="translate(243,317)"/>
<path d="M0 0 C2.25 0.0625 2.25 0.0625 5 1 C8.00014633 5.41197989 9.92793137 10.10238324 12 15 C12.99 16.485 12.99 16.485 14 18 C16.22108914 25.35608421 17.38991054 32.33175936 17 40 C18.98 40 20.96 40 23 40 C23 42.31 23 44.62 23 47 C21.02 47 19.04 47 17 47 C17.12375 48.8253125 17.12375 48.8253125 17.25 50.6875 C17.18055571 61.81594767 12.02570067 71.42542655 6.70703125 80.8828125 C4.93416345 83.90033586 4.93416345 83.90033586 4 87 C2.35 86.67 0.7 86.34 -1 86 C-2.3587916 81.92362519 -0.79516586 79.6562766 1 76 C1.66579508 74.70788385 2.33248003 73.41622589 3 72.125 C7.14200326 63.84099347 8.54627109 56.24668222 9 47 C7.02 47 5.04 47 3 47 C3 44.36 3 41.72 3 39 C4.98 39 6.96 39 9 39 C8.34 32.4 7.68 25.8 7 19 C6.01 18.67 5.02 18.34 4 18 C1.34227774 13.13361889 -0.58472218 7.53703757 -1 2 C-0.67 1.34 -0.34 0.68 0 0 Z " fill="#F9E3E4" transform="translate(343,218)"/>
<path d="M0 0 C0.598125 0.226875 1.19625 0.45375 1.8125 0.6875 C2.5 2.4375 2.5 2.4375 2.8125 4.6875 C1.4375 6.6875 1.4375 6.6875 -0.1875 8.6875 C-0.89264846 10.83483927 -0.89264846 10.83483927 -1.1875 12.6875 C-1.8475 12.6875 -2.5075 12.6875 -3.1875 12.6875 C-3.32027344 13.45835937 -3.45304687 14.22921875 -3.58984375 15.0234375 C-3.85474609 16.52777344 -3.85474609 16.52777344 -4.125 18.0625 C-4.38603516 19.55910156 -4.38603516 19.55910156 -4.65234375 21.0859375 C-5.1875 23.6875 -5.1875 23.6875 -6.1875 25.6875 C-6.57673527 28.05700521 -6.9255578 30.4332572 -7.25 32.8125 C-7.42660156 34.09382813 -7.60320312 35.37515625 -7.78515625 36.6953125 C-7.91792969 37.68273437 -8.05070313 38.67015625 -8.1875 39.6875 C-7.383125 39.666875 -6.57875 39.64625 -5.75 39.625 C-3.1875 39.6875 -3.1875 39.6875 -2.1875 40.6875 C-2.14669217 42.68708364 -2.14495644 44.68795254 -2.1875 46.6875 C-4.1675 46.6875 -6.1475 46.6875 -8.1875 46.6875 C-7.11540034 58.40058884 -4.4747324 67.66208007 1.1875 78.0625 C2.93693592 81.96508782 3.02279474 83.65318419 1.8125 87.6875 C-1.25715127 87.38105427 -2.75687272 87.17081579 -4.84765625 84.82421875 C-11.49324805 73.21757234 -15.78738634 60.18494255 -15.1875 46.6875 C-17.4975 46.6875 -19.8075 46.6875 -22.1875 46.6875 C-22.1875 44.3775 -22.1875 42.0675 -22.1875 39.6875 C-19.8775 39.6875 -17.5675 39.6875 -15.1875 39.6875 C-15.19910156 39.07003906 -15.21070313 38.45257813 -15.22265625 37.81640625 C-15.251544 35.10508467 -15.22938542 32.39862892 -15.1875 29.6875 C-15.18363281 28.9346875 -15.17976562 28.181875 -15.17578125 27.40625 C-14.8654705 21.49964532 -12.64352481 17.33064251 -9.67578125 12.2734375 C-8.42378894 10.09805978 -7.41830451 8.01518094 -6.5 5.6875 C-3.77573529 -0.53939076 -3.77573529 -0.53939076 0 0 Z " fill="#F8E2E3" transform="translate(224.1875,218.3125)"/>
<path d="M0 0 C3.35999018 1.45868754 5.55203106 3.30868948 8.12597656 5.89892578 C8.92650452 6.6996048 9.72703247 7.50028381 10.55181885 8.32522583 C11.40612488 9.18985443 12.26043091 10.05448303 13.140625 10.9453125 C14.02280701 11.8303244 14.90498901 12.7153363 15.81390381 13.62716675 C18.15194543 15.97450131 20.48555874 18.32606785 22.81713867 20.67980957 C25.19996526 23.08313927 27.58850348 25.48077767 29.9765625 27.87890625 C34.65631862 32.58071467 39.33031867 37.28818664 44 42 C43.67 42.99 43.34 43.98 43 45 C40.72949219 45.67919922 40.72949219 45.67919922 38 46 C36.10644531 44.87939453 36.10644531 44.87939453 34.328125 43.1328125 C33.66804443 42.49867432 33.00796387 41.86453613 32.32788086 41.21118164 C31.64218018 40.5227417 30.95647949 39.83430176 30.25 39.125 C29.5391626 38.4333374 28.8283252 37.7416748 28.09594727 37.02905273 C26.05043147 35.03256768 24.02427249 33.01798104 22 31 C21.07574219 30.10152344 20.15148437 29.20304687 19.19921875 28.27734375 C15.09750887 24.2606434 11.23051587 20.09669254 7.5078125 15.7265625 C6.02203902 13.9695883 6.02203902 13.9695883 4.3046875 12.3984375 C3 11 3 11 3 9 C2.071875 8.566875 2.071875 8.566875 1.125 8.125 C-1 7 -1 7 -3 5 C-3 4.01 -3 3.02 -3 2 C-2.01 1.34 -1.02 0.68 0 0 Z " fill="#FAE7E6" transform="translate(207,181)"/>
<path d="M0 0 C4 0 4 0 5.66712952 1.49182129 C6.20502609 2.16805542 6.74292267 2.84428955 7.29711914 3.54101562 C10.74395643 7.71299922 14.40561903 11.53524155 18.24609375 15.34375 C18.90207047 15.99831177 19.55804718 16.65287354 20.23390198 17.32727051 C22.29940145 19.38723823 24.36837595 21.44367366 26.4375 23.5 C27.85114434 24.9086205 29.26455786 26.31747267 30.67773438 27.7265625 C34.11583149 31.15372133 37.55704656 34.57772019 41 38 C40.1328125 39.953125 40.1328125 39.953125 39 42 C36.875 42.75 36.875 42.75 35 43 C34.28714844 42.20335937 33.57429688 41.40671875 32.83984375 40.5859375 C28.3024893 35.55325254 23.86138949 30.68159853 18.58984375 26.40234375 C16.80707227 24.82982542 15.34023329 23.13332361 13.8125 21.3125 C9.0513636 15.68868063 3.48462113 10.89923464 -2 6 C-1.49396008 3.83125748 -1.00016187 2.00032373 0 0 Z " fill="#F9E5E5" transform="translate(324,299)"/>
<path d="M0 0 C0.72541992 0.25031982 1.45083984 0.50063965 2.19824219 0.75854492 C2.82324219 2.57104492 2.82324219 2.57104492 3.19824219 4.75854492 C1.19824219 7.75854492 1.19824219 7.75854492 -1.00488281 9.03588867 C-4.7172233 11.32240006 -7.51390352 14.21833756 -10.55175781 17.32104492 C-11.14085937 17.91079102 -11.72996094 18.50053711 -12.33691406 19.1081543 C-15.45290811 22.14915965 -15.45290811 22.14915965 -17.80175781 25.75854492 C-19.97050033 25.252505 -21.80143408 24.75870679 -23.80175781 23.75854492 C-22.96468867 17.61032503 -17.21505187 13.61806096 -13.05175781 9.44604492 C-11.69050781 8.0296875 -11.69050781 8.0296875 -10.30175781 6.5847168 C-9.42003906 5.69719727 -8.53832031 4.80967773 -7.62988281 3.89526367 C-6.82454102 3.07759521 -6.01919922 2.25992676 -5.18945312 1.41748047 C-2.80175781 -0.24145508 -2.80175781 -0.24145508 0 0 Z " fill="#FCF5F5" transform="translate(236.8017578125,306.241455078125)"/>
<path d="M0 0 C2.125 0.9375 2.125 0.9375 4 2 C3.45982088 5.97031653 1.59261026 7.72196006 -1.25 10.4375 C-2.0646875 11.22511719 -2.879375 12.01273438 -3.71875 12.82421875 C-4.4715625 13.54222656 -5.224375 14.26023438 -6 15 C-7.36125 16.36125 -7.36125 16.36125 -8.75 17.75 C-9.4925 18.4925 -10.235 19.235 -11 20 C-11.845625 20.94875 -12.69125 21.8975 -13.5625 22.875 C-14.366875 23.57625 -15.17125 24.2775 -16 25 C-18.3125 24.8125 -18.3125 24.8125 -20 24 C-20.74926758 22.28198242 -20.74926758 22.28198242 -21 20 C-19.40112305 17.81762695 -19.40112305 17.81762695 -17.01171875 15.48828125 C-16.16029297 14.64845703 -15.30886719 13.80863281 -14.43164062 12.94335938 C-13.52607422 12.07517578 -12.62050781 11.20699219 -11.6875 10.3125 C-10.79353516 9.43271484 -9.89957031 8.55292969 -8.97851562 7.64648438 C-2.36503552 1.18251776 -2.36503552 1.18251776 0 0 Z " fill="#FCF6F4" transform="translate(350,191)"/>
<path d="M0 0 C0.99 0.33 1.98 0.66 3 1 C6.31352875 8.21179786 7.16372496 17.14120201 7 25 C3.37 25 -0.26 25 -4 25 C-3.34586714 16.49627276 -1.76535102 8.32712743 0 0 Z " fill="#E05F67" transform="translate(503,244)"/>
<path d="M0 0 C0.99 0.33 1.98 0.66 3 1 C3.50314563 3.77029586 4.00263838 6.5411652 4.5 9.3125 C4.64308594 10.09818359 4.78617188 10.88386719 4.93359375 11.69335938 C5.06894531 12.45068359 5.20429687 13.20800781 5.34375 13.98828125 C5.46943359 14.68477783 5.59511719 15.38127441 5.72460938 16.09887695 C6 18 6 18 6 21 C2.7 21 -0.6 21 -4 21 C-3.63419196 13.54508438 -2.79080349 6.95068039 0 0 Z " fill="#D9333E" transform="translate(775,247)"/>
<path d="M0 0 C1.48831242 0.00667405 2.97660807 0.01863442 4.46484375 0.03515625 C5.22345703 0.03966797 5.98207031 0.04417969 6.76367188 0.04882812 C8.64326246 0.06064945 10.52281274 0.07858547 12.40234375 0.09765625 C12.40234375 0.42765625 12.40234375 0.75765625 12.40234375 1.09765625 C7.45234375 1.42765625 2.50234375 1.75765625 -2.59765625 2.09765625 C-2.68402344 3.13019531 -2.77039063 4.16273438 -2.859375 5.2265625 C-4.05618943 18.09903289 -6.65441576 30.52076918 -9.59765625 43.09765625 C-10.58765625 43.09765625 -11.57765625 43.09765625 -12.59765625 43.09765625 C-13.44446758 38.01678829 -13.68803724 33.24937248 -13.59765625 28.09765625 C-13.26765625 28.09765625 -12.93765625 28.09765625 -12.59765625 28.09765625 C-12.26765625 30.07765625 -11.93765625 32.05765625 -11.59765625 34.09765625 C-9.3466667 30.72117192 -8.86821187 28.31769282 -8.09765625 24.34765625 C-7.9702002 23.69458496 -7.84274414 23.04151367 -7.71142578 22.36865234 C-6.55453931 16.26035012 -5.75574665 10.12147494 -5.02734375 3.94921875 C-4.39525532 -0.24554995 -4.40793277 0.11965073 0 0 Z " fill="#E78388" transform="translate(706.59765625,229.90234375)"/>
<path d="M0 0 C0.72541992 0.25031982 1.45083984 0.50063965 2.19824219 0.75854492 C2.82324219 2.57104492 2.82324219 2.57104492 3.19824219 4.75854492 C2.20824219 6.24354492 2.20824219 6.24354492 1.19824219 7.75854492 C0.53824219 7.42854492 -0.12175781 7.09854492 -0.80175781 6.75854492 C-0.47175781 5.10854492 -0.14175781 3.45854492 0.19824219 1.75854492 C-0.4553125 2.3212207 -0.4553125 2.3212207 -1.12207031 2.89526367 C-2.01539063 3.66290039 -2.01539063 3.66290039 -2.92675781 4.44604492 C-3.8896875 5.27555664 -3.8896875 5.27555664 -4.87207031 6.12182617 C-6.48775686 7.49221618 -8.14068835 8.8185316 -9.80175781 10.13354492 C-14.41270385 14.16812271 -18.40260576 18.65981685 -21.80175781 23.75854492 C-22.46175781 23.75854492 -23.12175781 23.75854492 -23.80175781 23.75854492 C-22.96468867 17.61032503 -17.21505187 13.61806096 -13.05175781 9.44604492 C-11.69050781 8.0296875 -11.69050781 8.0296875 -10.30175781 6.5847168 C-9.42003906 5.69719727 -8.53832031 4.80967773 -7.62988281 3.89526367 C-6.82454102 3.07759521 -6.01919922 2.25992676 -5.18945312 1.41748047 C-2.80175781 -0.24145508 -2.80175781 -0.24145508 0 0 Z " fill="#F3C5C7" transform="translate(236.8017578125,306.241455078125)"/>
<path d="M0 0 C2.90527612 2.90527612 2.71264319 6.21099025 3.125 10.125 C3.21136719 10.87910156 3.29773438 11.63320313 3.38671875 12.41015625 C3.59889261 14.27257127 3.80045763 16.13618931 4 18 C1.69 18 -0.62 18 -3 18 C-3.125 11.375 -3.125 11.375 -2 8 C-1.34 8 -0.68 8 0 8 C0 5.36 0 2.72 0 0 Z " fill="#D62430" transform="translate(504,249)"/>
<path d="M0 0 C3 0.125 3 0.125 4 1.125 C4.04063832 2.79117115 4.042721 4.45888095 4 6.125 C4.66 5.96 5.32 5.795 6 5.625 C9.73099794 5.00316701 13.21873378 5.06091074 17 5.125 C13.71508627 7.31494248 12.16904361 7.47777339 8.3125 7.75 C6.82169922 7.86214844 6.82169922 7.86214844 5.30078125 7.9765625 C4.54152344 8.02554687 3.78226562 8.07453125 3 8.125 C3 6.145 3 4.165 3 2.125 C1.35 2.125 -0.3 2.125 -2 2.125 C-2 4.105 -2 6.085 -2 8.125 C-5.63 7.795 -9.26 7.465 -13 7.125 C-13 6.795 -13 6.465 -13 6.125 C-10.03 6.125 -7.06 6.125 -4 6.125 C-4.020625 5.320625 -4.04125 4.51625 -4.0625 3.6875 C-3.97206764 -0.02022692 -3.7522321 0.156343 0 0 Z " fill="#EA8F96" transform="translate(284,322.875)"/>
<path d="M0 0 C-1.55799693 3.76878586 -3.909366 6.11271145 -6.8125 8.9375 C-7.66457031 9.77152344 -8.51664062 10.60554687 -9.39453125 11.46484375 C-10.25433594 12.30144531 -11.11414063 13.13804687 -12 14 C-12.87011719 14.88816406 -13.74023438 15.77632812 -14.63671875 16.69140625 C-17 19 -17 19 -20 21 C-20 18 -20 18 -18.37939453 16.00708008 C-17.63802246 15.26868896 -16.89665039 14.53029785 -16.1328125 13.76953125 C-15.32972656 12.96708984 -14.52664063 12.16464844 -13.69921875 11.33789062 C-12.42498047 10.08782227 -12.42498047 10.08782227 -11.125 8.8125 C-10.28324219 7.96751953 -9.44148438 7.12253906 -8.57421875 6.25195312 C-2.26675999 0 -2.26675999 0 0 0 Z " fill="#F3CECF" transform="translate(350,192)"/>
<path d="M0 0 C5.4389165 -0.21755666 9.87080814 -0.10428384 15 2 C11.73086376 3.03115279 9.13958652 2.9638984 5.75 2.5625 C4.85796875 2.46066406 3.9659375 2.35882813 3.046875 2.25390625 C2.37140625 2.17011719 1.6959375 2.08632812 1 2 C1.020625 2.804375 1.04125 3.60875 1.0625 4.4375 C1 7 1 7 0 8 C-2.33297433 8.04092937 -4.66705225 8.04241723 -7 8 C-7 5.69 -7 3.38 -7 1 C-6.34 1 -5.68 1 -5 1 C-5 2.65 -5 4.3 -5 6 C-3.35 6 -1.7 6 0 6 C0 4.02 0 2.04 0 0 Z " fill="#EB9295" transform="translate(287,192)"/>
<path d="M0 0 C0.33 0 0.66 0 1 0 C1 1.65 1 3.3 1 5 C1.66 5 2.32 5 3 5 C5.13898002 13.34067679 6.55046968 21.39691968 7 30 C4.72871644 27.72871644 4.56490039 26.79504253 3.96484375 23.71875 C3.79533203 22.87699219 3.62582031 22.03523438 3.45117188 21.16796875 C3.28166016 20.28753906 3.11214844 19.40710938 2.9375 18.5 C2.59483892 16.75994411 2.24989459 15.02033583 1.90234375 13.28125 C1.75273193 12.50845703 1.60312012 11.73566406 1.44897461 10.93945312 C1.06433068 8.93368611 1.06433068 8.93368611 0 7 C-0.04022391 4.6670134 -0.04320247 2.33293334 0 0 Z " fill="#EFAEAE" transform="translate(673,235)"/>
<path d="M0 0 C0.66 0 1.32 0 2 0 C2.53107314 2.74837849 3.05015881 5.49812375 3.5625 8.25 C3.71396484 9.02730469 3.86542969 9.80460937 4.02148438 10.60546875 C4.16005859 11.35957031 4.29863281 12.11367188 4.44140625 12.890625 C4.57232666 13.58188477 4.70324707 14.27314453 4.83813477 14.98535156 C5 17 5 17 4 21 C3.01 16.71 2.02 12.42 1 8 C-0.485 13.445 -0.485 13.445 -2 19 C-2.33 19 -2.66 19 -3 19 C-3.45510807 12.32508169 -1.7672426 6.40625443 0 0 Z " fill="#E05E64" transform="translate(710,257)"/>
<path d="M0 0 C0.66 0.33 1.32 0.66 2 1 C0.38405168 3.04119788 -1.2856382 5.04072937 -3 7 C-3.66 7 -4.32 7 -5 7 C-5.66 11.29 -6.32 15.58 -7 20 C-7.66 19.67 -8.32 19.34 -9 19 C-9.67153852 13.62769181 -9.48711506 10.00272274 -6.1875 5.5625 C-4.20048405 3.13392495 -2.6586193 1.77241286 0 0 Z " fill="#EC9C9F" transform="translate(621,233)"/>
<path d="M0 0 C0.99 0.33 1.98 0.66 3 1 C2.67 1.66 2.34 2.32 2 3 C1.84230501 5.68957575 1.7237056 8.37084121 1.625 11.0625 C1.32003542 17.52856404 0.67098775 23.01698744 -2 29 C-2.66 29.33 -3.32 29.66 -4 30 C-3.79503906 29.25878906 -3.59007812 28.51757812 -3.37890625 27.75390625 C-1.00684265 18.48129401 -0.33116108 9.53515513 0 0 Z " fill="#EEAEAF" transform="translate(293,230)"/>
<path d="M0 0 C0.66 0.33 1.32 0.66 2 1 C3.09697531 4.29092594 3.2371983 6.91112159 3.3125 10.375 C3.34988281 11.49648438 3.38726563 12.61796875 3.42578125 13.7734375 C2.91858133 17.6169892 1.63318938 19.2265816 -1 22 C-1.66 21.67 -2.32 21.34 -3 21 C-2.525625 19.989375 -2.05125 18.97875 -1.5625 17.9375 C1.03506157 11.81907297 1.1972632 6.51843298 0 0 Z " fill="#E6868C" transform="translate(652,267)"/>
<path d="M0 0 C0.33 0 0.66 0 1 0 C1.33 1.98 1.66 3.96 2 6 C2.99 5.01 3.98 4.02 5 3 C4.67 6.96 4.34 10.92 4 15 C3.01 15 2.02 15 1 15 C0.15318867 9.91913204 -0.09038099 5.15171623 0 0 Z " fill="#E15D61" transform="translate(693,258)"/>
<path d="M0 0 C0.33 0 0.66 0 1 0 C0.67 6.93 0.34 13.86 0 21 C-1.32 21 -2.64 21 -4 21 C-3.125 17.125 -3.125 17.125 -2 16 C-1.60006314 13.31137336 -1.24865457 10.63647783 -0.9375 7.9375 C-0.84662109 7.17888672 -0.75574219 6.42027344 -0.66210938 5.63867188 C-0.4375626 3.7595699 -0.21829022 1.87983905 0 0 Z " fill="#F2C0C4" transform="translate(590,256)"/>
<path d="M0 0 C0.99 0.33 1.98 0.66 3 1 C5.70722233 6.5648459 5.62628347 12.92218903 6 19 C3.72297826 15.58446739 3.28175788 12.92969971 2.5625 8.9609375 C2.376875 8.31382812 2.19125 7.66671875 2 7 C1.34 6.67 0.68 6.34 0 6 C0 4.02 0 2.04 0 0 Z " fill="#EC9FA4" transform="translate(503,244)"/>
<path d="M0 0 C0.33 0 0.66 0 1 0 C1 2.64 1 5.28 1 8 C0.34 8 -0.32 8 -1 8 C-1 8.66 -1 9.32 -1 10 C-5.95 10 -10.9 10 -16 10 C-16 8.35 -16 6.7 -16 5 C-15.67 6.32 -15.34 7.64 -15 9 C-10.71 9 -6.42 9 -2 9 C-1.34 6.03 -0.68 3.06 0 0 Z " fill="#EDA3A6" transform="translate(766,285)"/>
<path d="M0 0 C0.99 0.33 1.98 0.66 3 1 C4.1875 4.0625 4.1875 4.0625 5 7 C3.68 6.67 2.36 6.34 1 6 C1 8.64 1 11.28 1 14 C0.67 14 0.34 14 0 14 C0 9.38 0 4.76 0 0 Z " fill="#DD5157" transform="translate(294,232)"/>
<path d="M0 0 C0.33 0 0.66 0 1 0 C1.33 3.3 1.66 6.6 2 10 C-2.95 10 -7.9 10 -13 10 C-13 9.67 -13 9.34 -13 9 C-7.06 8.505 -7.06 8.505 -1 8 C-0.67 5.36 -0.34 2.72 0 0 Z " fill="#EFB0B3" transform="translate(801,285)"/>
<path d="M0 0 C4.11518018 4.11518018 4.125 9.40087257 4.125 14.9375 C4.09319918 16.62521475 4.05491533 18.31287918 4 20 C3.67 20 3.34 20 3 20 C2.49550598 17.41747107 1.99625699 14.83411297 1.5 12.25 C1.35691406 11.52039063 1.21382812 10.79078125 1.06640625 10.0390625 C0.41111121 6.60656468 0 3.50830509 0 0 Z " fill="#E05E65" transform="translate(720,236)"/>
<path d="M0 0 C2.47212294 2.93394811 3.53887671 5.23792842 4.25 9 C4.50523437 10.2684375 4.50523437 10.2684375 4.765625 11.5625 C5.00137699 14.01432071 4.75375194 15.67413687 4 18 C3.32678716 15.75194998 2.66165877 13.50147776 2 11.25 C1.62875 9.99703125 1.2575 8.7440625 0.875 7.453125 C0 4 0 4 0 0 Z " fill="#E7898D" transform="translate(515,233)"/>
<path d="M0 0 C1.98 0.99 1.98 0.99 4 2 C3.01 2.495 3.01 2.495 2 3 C2 7.62 2 12.24 2 17 C1.67 17 1.34 17 1 17 C0.67 11.39 0.34 5.78 0 0 Z " fill="#E37980" transform="translate(260,236)"/>
<path d="M0 0 C2 2 2 2 2.125 5.625 C2.08375 6.73875 2.0425 7.8525 2 9 C2.66 9 3.32 9 4 9 C3.67 10.98 3.34 12.96 3 15 C2.34 14.67 1.68 14.34 1 14 C0.5859375 10.83984375 0.5859375 10.83984375 0.375 6.9375 C0.30023437 5.64714844 0.22546875 4.35679687 0.1484375 3.02734375 C0.09945312 2.02832031 0.05046875 1.02929688 0 0 Z " fill="#E36E73" transform="translate(585,259)"/>
<path d="M0 0 C0.99 0.33 1.98 0.66 3 1 C3 1.66 3 2.32 3 3 C2.01 3.66 1.02 4.32 0 5 C0 5.99 0 6.98 0 8 C-0.99 7.67 -1.98 7.34 -3 7 C-2.25 2.25 -2.25 2.25 0 0 Z " fill="#F0ADB3" transform="translate(243,317)"/>
<path d="M0 0 C0.66 0.33 1.32 0.66 2 1 C-2.18461538 6.78461538 -2.18461538 6.78461538 -6.3125 7.875 C-7.6428125 7.936875 -7.6428125 7.936875 -9 8 C-6.17493137 5.0702992 -3.21203935 2.49825283 0 0 Z " fill="#E16269" transform="translate(313,297)"/>
<path d="M0 0 C0.33 0 0.66 0 1 0 C1 2.31 1 4.62 1 7 C1.99 7 2.98 7 4 7 C3.67 8.32 3.34 9.64 3 11 C2.01 10.67 1.02 10.34 0 10 C0 6.7 0 3.4 0 0 Z " fill="#F2CACA" transform="translate(693,266)"/>
<path d="M0 0 C1.32 0 2.64 0 4 0 C4 2.97 4 5.94 4 9 C3.67 9 3.34 9 3 9 C3 7.02 3 5.04 3 3 C2.34 3 1.68 3 1 3 C0.67 3.99 0.34 4.98 0 6 C0 4.02 0 2.04 0 0 Z " fill="#EFB5B7" transform="translate(709,254)"/>
<path d="M0 0 C0.99 0.33 1.98 0.66 3 1 C2.67 2.32 2.34 3.64 2 5 C1.67 4.34 1.34 3.68 1 3 C0.71125 3.804375 0.4225 4.60875 0.125 5.4375 C-1 8 -1 8 -3 9 C-2.01 6.03 -1.02 3.06 0 0 Z " fill="#E68387" transform="translate(314,251)"/>
<path d="M0 0 C0.33 0.66 0.66 1.32 1 2 C-0.25 5.5625 -0.25 5.5625 -2 9 C-2.99 9.33 -3.98 9.66 -5 10 C-3.66511872 6.40608886 -2.03977277 3.24509304 0 0 Z " fill="#F0B1B3" transform="translate(347,289)"/>
<path d="M0 0 C0.99 0.33 1.98 0.66 3 1 C3 4.3 3 7.6 3 11 C2.67 11 2.34 11 2 11 C1.67 8.69 1.34 6.38 1 4 C0.01 4.495 0.01 4.495 -1 5 C-0.67 3.35 -0.34 1.7 0 0 Z " fill="#F4C7C7" transform="translate(571,253)"/>
<path d="M0 0 C0.66 0.33 1.32 0.66 2 1 C1.67 2.98 1.34 4.96 1 7 C-0.65 7.33 -2.3 7.66 -4 8 C-3.525625 7.608125 -3.05125 7.21625 -2.5625 6.8125 C-0.64820367 4.59191626 -0.38733012 2.86624291 0 0 Z " fill="#EA9197" transform="translate(326,319)"/>
<path d="M0 0 C-1 1.5 -1 1.5 -3 3 C-5.71846235 3.27345479 -8.25677199 3.13491285 -11 3 C-11 2.67 -11 2.34 -11 2 C-9.54494642 1.47007308 -8.08581873 0.9513211 -6.625 0.4375 C-5.81289063 0.14746094 -5.00078125 -0.14257812 -4.1640625 -0.44140625 C-2 -1 -2 -1 0 0 Z " fill="#E36B76" transform="translate(647,292)"/>
<path d="M0 0 C0.99 0.33 1.98 0.66 3 1 C3 2.32 3 3.64 3 5 C2.01 5 1.02 5 0 5 C-0.33 5.66 -0.66 6.32 -1 7 C-0.67 4.69 -0.34 2.38 0 0 Z " fill="#DE5860" transform="translate(775,247)"/>
<path d="M0 0 C0.99 0.33 1.98 0.66 3 1 C3 2.98 3 4.96 3 7 C2.01 6.67 1.02 6.34 0 6 C0 4.02 0 2.04 0 0 Z " fill="#E7848C" transform="translate(503,244)"/>
<path d="M0 0 C1.98 0.99 1.98 0.99 4 2 C3.67 3.65 3.34 5.3 3 7 C2.01 7.33 1.02 7.66 0 8 C0.185625 7.05125 0.37125 6.1025 0.5625 5.125 C1.28686632 2.10131207 1.28686632 2.10131207 0 0 Z " fill="#E15E66" transform="translate(225,218)"/>
</svg>
