<?xml version="1.0" encoding="UTF-8"?>
<svg version="1.1" xmlns="http://www.w3.org/2000/svg" width="1100" height="1100">
<path d="M0 0 C422.07 0 844.14 0 1279 0 C1279 237.6 1279 475.2 1279 720 C856.93 720 434.86 720 0 720 C0 482.4 0 244.8 0 0 Z " fill="#015DA7" transform="translate(0,0)"/>
<path d="M0 0 C275.22 0 550.44 0 834 0 C824.73368566 18.53262868 824.73368566 18.53262868 820 27.125 C819.22873779 28.53217285 819.22873779 28.53217285 818.44189453 29.96777344 C815.01752416 36.19877621 811.52451233 42.3854148 807.9765625 48.546875 C801.80992837 59.32020419 795.8702242 70.22171656 789.9375 81.125 C785.75120101 88.818667 781.50761024 96.47574827 777.19921875 104.1015625 C774.84612664 108.26724284 772.51300267 112.44386264 770.1875 116.625 C769.77685303 117.36306885 769.36620605 118.1011377 768.94311523 118.86157227 C766.61124985 123.06358741 764.30290346 127.27744544 762.015625 131.50390625 C757.15837555 140.47553171 752.26150803 149.37872973 746.94116211 158.08496094 C744.51517192 162.07493699 742.37632793 166.12246147 740.34765625 170.32421875 C738.65050217 173.69393047 736.7999983 176.97003948 734.9375 180.25 C731.19791308 186.8362927 727.55101585 193.46873247 723.9375 200.125 C720.08195907 207.22126476 716.15585771 214.26198477 712.12109375 221.2578125 C709.36052566 226.08914348 706.7190644 230.98599374 704.0625 235.875 C699.83883735 243.64801433 695.55964329 251.38455908 691.20703125 259.0859375 C688.80507493 263.33762669 686.43206767 267.6051949 684.0625 271.875 C683.43770752 273.00083496 683.43770752 273.00083496 682.80029297 274.14941406 C681.95545725 275.67213996 681.11073105 277.19492663 680.26611328 278.71777344 C678.59480719 281.7303784 676.92165348 284.74195486 675.24829102 287.75341797 C674.4139778 289.25495331 673.5798315 290.7565814 672.74584961 292.25830078 C670.68995014 295.96012093 668.63222151 299.6608984 666.5703125 303.359375 C661.98371459 311.59191865 657.44084219 319.84658827 652.9375 328.125 C648.75129167 335.81871538 644.50760943 343.4757497 640.19921875 351.1015625 C634.01217932 362.05448201 627.9495855 373.0752736 621.9375 384.125 C615.67538274 395.62634281 609.30631307 407.05367274 602.71142578 418.36767578 C602.22915527 419.19509277 601.74688477 420.02250977 601.25 420.875 C600.77804199 421.68437012 600.30608398 422.49374023 599.81982422 423.32763672 C597.01766935 428.16028073 594.39562245 433.0307499 591.98046875 438.0703125 C590.55858447 440.86876204 588.73954028 443.39068958 587 446 C586.5565625 447.05960937 586.113125 448.11921875 585.65625 449.2109375 C583.99048565 453.18175115 581.86096809 456.76563026 579.625 460.4375 C575.36853206 467.54493051 571.361716 474.76681482 567.4375 482.0625 C562.74082489 490.79268597 557.96128589 499.4650403 553.07714844 508.09130859 C546.63181867 519.51233944 540.33303445 531.01649129 534 542.5 C518.53140138 570.54604995 518.53140138 570.54604995 511.08862305 583.66650391 C506.32578336 592.06305302 501.64640595 600.48018578 497.14453125 609.01953125 C493.88199979 615.13578354 490.41717898 621.14103958 486.99487305 627.16870117 C482.46647216 635.15210906 478.02804411 643.18170105 473.6171875 651.23046875 C469.8534561 658.0980928 466.04210858 664.9392099 462.23388672 671.78222656 C460.98974666 674.01842924 459.74662586 676.25519516 458.50390625 678.4921875 C457.88370605 679.60859619 457.88370605 679.60859619 457.25097656 680.74755859 C456.42067645 682.24255251 455.59059633 683.73766864 454.76074219 685.23291016 C452.62171659 689.08601724 450.4773878 692.93602615 448.32421875 696.78125 C447.88271484 697.57144531 447.44121094 698.36164062 446.98632812 699.17578125 C446.15480353 700.66377263 445.32162473 702.15084154 444.48632812 703.63671875 C441.47897139 709.02468896 438.76805617 714.46388766 436 720 C292.12 720 148.24 720 0 720 C0 482.4 0 244.8 0 0 Z " fill="#FEFEFE" transform="translate(0,0)"/>
<path d="M0 0 C0.82729101 -0.00367669 1.65458202 -0.00735338 2.50694245 -0.01114148 C5.28899224 -0.0221861 8.07100468 -0.02602346 10.85307312 -0.02983093 C12.8437563 -0.03609492 14.8344383 -0.04274166 16.82511902 -0.04974365 C22.24045672 -0.06715753 27.65578558 -0.07770616 33.07114434 -0.08594918 C36.45306251 -0.0910978 39.83497792 -0.09717355 43.21689415 -0.10346031 C53.79416564 -0.12251222 64.37143015 -0.13674419 74.94871551 -0.14507228 C87.16608668 -0.15485013 99.38327693 -0.18118403 111.60058433 -0.22157317 C121.03930324 -0.25170808 130.47797021 -0.2665386 139.9167363 -0.26985329 C145.55640223 -0.27220647 151.19587487 -0.28120204 156.83548927 -0.30631447 C162.14031639 -0.32955465 167.44482241 -0.33384469 172.74968719 -0.32355309 C174.69676213 -0.32305665 176.64385265 -0.32940861 178.59087944 -0.34310913 C181.24928659 -0.36076894 183.90653395 -0.35375129 186.56494141 -0.34057617 C187.3352805 -0.35154542 188.1056196 -0.36251466 188.8993023 -0.37381631 C194.03589076 -0.31236212 197.10706529 0.74787295 200.97294617 4.14717102 C201.71123314 6.06054306 201.71123314 6.06054306 201.69447327 8.082901 C201.70272125 8.85408768 201.71096924 9.62527435 201.71946716 10.41983032 C201.69789551 11.25636642 201.67632385 12.09290253 201.65409851 12.95478821 C201.65541275 14.28702675 201.65541275 14.28702675 201.65675354 15.6461792 C201.65257575 18.57969854 201.60591535 21.51092661 201.55888367 24.44404602 C201.54769219 26.47855887 201.53915178 28.51308789 201.53315735 30.54762268 C201.5102553 35.90086054 201.45131956 41.25312061 201.38493347 46.60597229 C201.32354098 52.06878939 201.29614878 57.53176459 201.26591492 62.99482727 C201.2015782 73.71270465 201.09918152 84.42985651 200.97294617 95.14717102 C202.2427533 95.30024719 203.51256042 95.45332336 204.82084656 95.61103821 C217.41562908 97.12934839 229.83330246 104.02923243 238.10575867 113.61982727 C247.16378783 125.58813576 252.4502271 137.11282176 251.97294617 152.14717102 C253.04544617 152.02342102 254.11794617 151.89967102 255.22294617 151.77217102 C262.32532613 151.7974015 268.89637445 155.51475226 274.19169617 160.04560852 C281.13959339 167.49398986 282.63106761 174.59419066 282.38310242 184.67451477 C281.35527909 193.37675227 276.57610031 199.66241654 269.97294617 205.14717102 C261.75802253 211.25570398 251.67971389 210.44538814 241.93486023 210.43769836 C240.41622083 210.44369044 238.89758445 210.45049754 237.37895203 210.45805359 C233.27129657 210.47565281 229.16372456 210.48040642 225.05603504 210.48168516 C222.48428045 210.4831109 219.91254679 210.48738851 217.34079742 210.4926796 C208.35325789 210.51116057 199.36577751 210.51935273 190.3782196 210.51777649 C182.02576392 210.51657598 173.67356701 210.53766542 165.32117677 210.56926382 C158.12936774 210.59549335 150.93764287 210.60614098 143.74578643 210.60486567 C139.45968114 210.60435795 135.17380598 210.60993526 130.88774872 210.63122177 C126.85252786 210.65071693 122.81775396 210.65065251 118.78251648 210.63618851 C117.31044098 210.63411312 115.83833666 210.63872464 114.36631012 210.65090942 C100.75985319 210.75614818 89.40896729 208.29732526 78.97294617 199.14717102 C74.87060205 194.73538284 68.97294617 187.37319372 68.97294617 181.14717102 C68.00685928 181.15827408 67.0407724 181.16937714 66.04541016 181.18081665 C56.93777927 181.28220646 47.83026298 181.35714287 38.72219563 181.40623188 C34.0396706 181.43231778 29.35760142 181.46769713 24.67533875 181.52436829 C20.15602328 181.57872447 15.63714606 181.60859914 11.11752892 181.62155724 C9.39390858 181.6307907 7.67031203 181.64882191 5.94687843 181.6758213 C3.53096968 181.7121613 1.11686778 181.71711456 -1.29927063 181.71479797 C-2.36634247 181.74176254 -2.36634247 181.74176254 -3.45497131 181.76927185 C-7.07722223 181.73173001 -8.83031495 181.30061098 -11.71086597 179.05402088 C-14.59511066 175.43425134 -14.65110848 173.62430557 -14.64851379 169.03630066 C-14.65490262 168.33177423 -14.66129144 167.62724779 -14.66787386 166.90137208 C-14.68310521 164.54636212 -14.66267753 162.19303969 -14.64228821 159.83808899 C-14.64578994 158.14765364 -14.6514491 156.45722158 -14.65910339 154.76679993 C-14.67335154 150.18004507 -14.65629106 145.59388967 -14.63281822 141.00719213 C-14.61271812 136.20930035 -14.61858823 131.41143366 -14.6209259 126.61351013 C-14.62087233 118.55838627 -14.6011137 110.503497 -14.56904602 102.44844055 C-14.53212825 93.12966397 -14.52337389 83.81119444 -14.53034353 74.49235427 C-14.53664305 65.53233236 -14.52590608 56.57241595 -14.50637817 47.61241531 C-14.49819389 43.79667281 -14.4954965 39.98098416 -14.49707031 36.16523361 C-14.49794763 31.67539081 -14.4837745 27.18584097 -14.45784378 22.69607544 C-14.45066692 21.04608709 -14.44860564 19.3960676 -14.45196152 17.74606705 C-14.45566176 15.49841565 -14.44098104 13.25162619 -14.42146301 11.0040741 C-14.4177343 9.74494642 -14.41400558 8.48581875 -14.41016388 7.18853569 C-14.02705383 4.14717102 -14.02705383 4.14717102 -12.68990326 2.28111458 C-8.75542713 -0.4019148 -4.55659335 -0.00108112 0 0 Z " fill="#387BC8" transform="translate(778.0270538330078,234.8528289794922)"/>
<path d="M0 0 C0.76699219 0.51304687 1.53398438 1.02609375 2.32421875 1.5546875 C13.49650695 9.48340816 22.28778411 23.29130123 24.765625 36.8203125 C25.16869932 40.56890364 25.11958758 44.23299119 25 48 C26.0725 47.87625 27.145 47.7525 28.25 47.625 C35.35237996 47.65023048 41.92342828 51.36758124 47.21875 55.8984375 C54.16664722 63.34681884 55.65812144 70.44701963 55.41015625 80.52734375 C54.38233292 89.22958125 49.60315414 95.51524552 43 101 C34.78507636 107.10853296 24.70676772 106.29821711 14.96191406 106.29052734 C13.44327466 106.29651942 11.92463829 106.30332652 10.40600586 106.31088257 C6.29835041 106.32848179 2.19077839 106.3332354 -1.91691113 106.33451414 C-4.48866571 106.33593988 -7.06039937 106.34021748 -9.63214874 106.34550858 C-18.61968828 106.36398955 -27.60716866 106.37218171 -36.59472656 106.37060547 C-44.94718225 106.36940496 -53.29937916 106.3904944 -61.6517694 106.4220928 C-68.84357843 106.44832233 -76.03530329 106.45896996 -83.22715974 106.45769465 C-87.51326502 106.45718693 -91.79914019 106.46276424 -96.08519745 106.48405075 C-100.12041831 106.5035459 -104.15519221 106.50348149 -108.19042969 106.48901749 C-109.66250519 106.4869421 -111.13460951 106.49155362 -112.60663605 106.5037384 C-126.23486823 106.60914558 -137.53597037 104.13496683 -148 95 C-156.81717694 85.85339008 -160.48290643 74.23098323 -160.328125 61.796875 C-159.31473876 50.07054849 -153.55615813 41.75688456 -145 34 C-142.44723158 31.99126419 -139.9155765 30.42179348 -137 29 C-135.845 28.401875 -134.69 27.80375 -133.5 27.1875 C-124.18507647 23.99695533 -112.7268254 25.21618788 -103.69921875 28.65234375 C-98.45218734 31.27206276 -94.1272587 34.8727413 -90 39 C-89.63648438 37.96101563 -89.27296875 36.92203125 -88.8984375 35.8515625 C-82.21699364 17.14396903 -72.9202914 3.21668698 -54.625 -5.8125 C-36.91030854 -13.39738198 -15.58948679 -11.30306047 0 0 Z " fill="#C7E2F1" transform="translate(1005,339)"/>
<path d="M0 0 C0.82729101 -0.00367669 1.65458202 -0.00735338 2.50694245 -0.01114148 C5.28899224 -0.0221861 8.07100468 -0.02602346 10.85307312 -0.02983093 C12.8437563 -0.03609492 14.8344383 -0.04274166 16.82511902 -0.04974365 C22.24045672 -0.06715753 27.65578558 -0.07770616 33.07114434 -0.08594918 C36.45306251 -0.0910978 39.83497792 -0.09717355 43.21689415 -0.10346031 C53.79416564 -0.12251222 64.37143015 -0.13674419 74.94871551 -0.14507228 C87.16608668 -0.15485013 99.38327693 -0.18118403 111.60058433 -0.22157317 C121.03930324 -0.25170808 130.47797021 -0.2665386 139.9167363 -0.26985329 C145.55640223 -0.27220647 151.19587487 -0.28120204 156.83548927 -0.30631447 C162.14031639 -0.32955465 167.44482241 -0.33384469 172.74968719 -0.32355309 C174.69676213 -0.32305665 176.64385265 -0.32940861 178.59087944 -0.34310913 C181.24928659 -0.36076894 183.90653395 -0.35375129 186.56494141 -0.34057617 C187.3352805 -0.35154542 188.1056196 -0.36251466 188.8993023 -0.37381631 C194.03606102 -0.31236008 197.10544197 0.75008764 200.97294617 4.14717102 C201.55840491 7.30988141 201.73648081 9.70396495 201.65409851 12.86299133 C201.65541275 14.18059952 201.65541275 14.18059952 201.65675354 15.52482605 C201.65257602 18.42589 201.60591724 21.32463652 201.55888367 24.22529602 C201.54769209 26.23738848 201.53915172 28.24949729 201.53315735 30.26161194 C201.5102561 35.55567117 201.45132114 40.84874156 201.38493347 46.14241028 C201.32353921 51.54490277 201.29614841 56.94755518 201.26591492 62.35029602 C201.20157962 72.94968865 201.09918398 83.54834759 200.97294617 94.14717102 C197.34294617 94.14717102 193.71294617 94.14717102 189.97294617 94.14717102 C189.97294617 77.64717102 189.97294617 61.14717102 189.97294617 44.14717102 C126.94294617 44.14717102 63.91294617 44.14717102 -1.02705383 44.14717102 C-1.02705383 85.72717102 -1.02705383 127.30717102 -1.02705383 170.14717102 C21.41294617 170.14717102 43.85294617 170.14717102 66.97294617 170.14717102 C67.96294617 175.59217102 67.96294617 175.59217102 68.97294617 181.14717102 C58.88948662 181.26305836 48.80618567 181.35188302 38.72219563 181.40623188 C34.0396706 181.43231778 29.35760142 181.46769713 24.67533875 181.52436829 C20.15602328 181.57872447 15.63714606 181.60859914 11.11752892 181.62155724 C9.39390858 181.6307907 7.67031203 181.64882191 5.94687843 181.6758213 C3.53096968 181.7121613 1.11686778 181.71711456 -1.29927063 181.71479797 C-2.36634247 181.74176254 -2.36634247 181.74176254 -3.45497131 181.76927185 C-7.07722223 181.73173001 -8.83031495 181.30061098 -11.71086597 179.05402088 C-14.59511066 175.43425134 -14.65110848 173.62430557 -14.64851379 169.03630066 C-14.65490262 168.33177423 -14.66129144 167.62724779 -14.66787386 166.90137208 C-14.68310521 164.54636212 -14.66267753 162.19303969 -14.64228821 159.83808899 C-14.64578994 158.14765364 -14.6514491 156.45722158 -14.65910339 154.76679993 C-14.67335154 150.18004507 -14.65629106 145.59388967 -14.63281822 141.00719213 C-14.61271812 136.20930035 -14.61858823 131.41143366 -14.6209259 126.61351013 C-14.62087233 118.55838627 -14.6011137 110.503497 -14.56904602 102.44844055 C-14.53212825 93.12966397 -14.52337389 83.81119444 -14.53034353 74.49235427 C-14.53664305 65.53233236 -14.52590608 56.57241595 -14.50637817 47.61241531 C-14.49819389 43.79667281 -14.4954965 39.98098416 -14.49707031 36.16523361 C-14.49794763 31.67539081 -14.4837745 27.18584097 -14.45784378 22.69607544 C-14.45066692 21.04608709 -14.44860564 19.3960676 -14.45196152 17.74606705 C-14.45566176 15.49841565 -14.44098104 13.25162619 -14.42146301 11.0040741 C-14.4177343 9.74494642 -14.41400558 8.48581875 -14.41016388 7.18853569 C-14.02705383 4.14717102 -14.02705383 4.14717102 -12.68990326 2.28111458 C-8.75542713 -0.4019148 -4.55659335 -0.00108112 0 0 Z " fill="#808180" transform="translate(778.0270538330078,234.8528289794922)"/>
<path d="M0 0 C3.39106049 0.17638445 6.78444008 0.25299713 10.17883301 0.33721924 C16.80253493 0.50866097 23.38975843 0.84074232 30.01477051 1.16729736 C30.01477051 17.66729736 30.01477051 34.16729736 30.01477051 51.16729736 C26.05477051 51.82729736 22.09477051 52.48729736 18.01477051 53.16729736 C2.21155692 59.04978129 -9.5522786 69.46259726 -16.79772949 84.72979736 C-18.94210959 89.75749934 -20.57708856 94.88963093 -21.98522949 100.16729736 C-22.72966309 99.58721924 -22.72966309 99.58721924 -23.48913574 98.99542236 C-35.75827043 89.58986181 -46.47013645 85.79095846 -61.98522949 87.16729736 C-72.19119573 89.44735365 -80.39893562 96.42636464 -86.48132324 104.71026611 C-90.70073245 111.6037944 -91.98571695 118.17119706 -92.98522949 126.16729736 C-109.81522949 126.16729736 -126.64522949 126.16729736 -143.98522949 126.16729736 C-137.24345024 118.30188824 -137.24345024 118.30188824 -134.65319824 115.55401611 C-134.08681641 114.95081543 -133.52043457 114.34761475 -132.93688965 113.72613525 C-132.3547168 113.10859375 -131.77254395 112.49105225 -131.17272949 111.85479736 C-127.1035294 107.52091211 -123.06307601 103.1707345 -119.11022949 98.72979736 C-115.74667763 94.95758967 -112.24576525 91.37294712 -108.61413574 87.85870361 C-106.78547757 86.06009839 -106.78547757 86.06009839 -104.98522949 83.16729736 C-104.32522949 83.16729736 -103.66522949 83.16729736 -102.98522949 83.16729736 C-102.75190918 82.60526611 -102.51858887 82.04323486 -102.27819824 81.46417236 C-100.66585873 78.59995595 -98.66587329 76.69477715 -96.29772949 74.41729736 C-92.51398123 70.71533041 -88.95117797 66.93453594 -85.51257324 62.91339111 C-83.44788005 60.55298739 -81.20198587 58.38405374 -78.98522949 56.16729736 C-77.99522949 54.84729736 -77.00522949 53.52729736 -75.98522949 52.16729736 C-85.88522949 52.16729736 -95.78522949 52.16729736 -105.98522949 52.16729736 C-105.98522949 51.83729736 -105.98522949 51.50729736 -105.98522949 51.16729736 C-94.76522949 51.16729736 -83.54522949 51.16729736 -71.98522949 51.16729736 C-71.65522949 49.84729736 -71.32522949 48.52729736 -70.98522949 47.16729736 C-69.42663574 45.02667236 -69.42663574 45.02667236 -67.54772949 42.91729736 C-66.93026855 42.21089111 -66.31280762 41.50448486 -65.67663574 40.77667236 C-63.98522949 39.16729736 -63.98522949 39.16729736 -61.98522949 39.16729736 C-61.74159668 38.59495361 -61.49796387 38.02260986 -61.24694824 37.43292236 C-59.76005651 34.76296198 -58.00439041 33.0290073 -55.79772949 30.91729736 C-50.26387442 25.60634714 -45.21856736 20.01906139 -40.85632324 13.70465088 C-29.73267191 -1.3786486 -17.72035357 -1.02151607 0 0 Z " fill="#0172C5" transform="translate(937.9852294921875,278.83270263671875)"/>
<path d="M0 0 C70.95 0 141.9 0 215 0 C215 20.79 215 41.58 215 63 C211.37 63 207.74 63 204 63 C204 46.5 204 30 204 13 C140.97 13 77.94 13 13 13 C13 54.58 13 96.16 13 139 C35.44 139 57.88 139 81 139 C81.99 144.445 81.99 144.445 83 150 C72.91654045 150.11588734 62.8332395 150.204712 52.74924946 150.25906086 C48.06672443 150.28514676 43.38465525 150.32052611 38.70239258 150.37719727 C34.18307712 150.43155345 29.66419989 150.46142812 25.14458275 150.47438622 C23.42096241 150.48361968 21.69736586 150.50165089 19.97393227 150.52865028 C17.55802351 150.56499028 15.14392162 150.56994354 12.7277832 150.56762695 C11.66071136 150.59459152 11.66071136 150.59459152 10.57208252 150.62210083 C7.17078719 150.58684903 5.01667844 150.00943886 2.05249023 148.33190918 C-1.2738446 142.9321049 -0.65255754 137.30569801 -0.56762695 131.12182617 C-0.56609459 129.66943332 -0.56676391 128.21703675 -0.56945324 126.76464558 C-0.57058072 122.87987056 -0.54163192 118.99586773 -0.50640106 115.11127472 C-0.4778967 111.46433617 -0.47658397 107.81758411 -0.47302246 104.17053223 C-0.44680022 93.50941946 -0.37699421 82.84844994 -0.3125 72.1875 C-0.209375 48.365625 -0.10625 24.54375 0 0 Z " fill="#9EA2A5" transform="translate(764,266)"/>
<path d="M0 0 C0.66 0 1.32 0 2 0 C3.04638672 1.41088867 3.04638672 1.41088867 4.1796875 3.41796875 C4.60757568 4.16675293 5.03546387 4.91553711 5.47631836 5.68701172 C5.9378833 6.51217285 6.39944824 7.33733398 6.875 8.1875 C7.3604126 9.04102051 7.8458252 9.89454102 8.34594727 10.77392578 C9.37931745 12.59187653 10.40957958 14.41159687 11.43701172 16.23291016 C13.42819126 19.75806307 15.44072141 23.27076661 17.45336914 26.78369141 C21.06377698 33.08750269 24.65921898 39.39983681 28.25 45.71484375 C29.05062866 47.12080811 29.05062866 47.12080811 29.86743164 48.55517578 C30.88106045 50.33529143 31.89336413 52.11616258 32.90405273 53.89794922 C35.50448567 58.46238025 38.1854789 62.92680593 41.10180664 67.29760742 C42 69 42 69 42 72 C20.22 72 -1.56 72 -24 72 C-24 71.34 -24 70.68 -24 70 C-19.67750105 69.28282605 -15.35417799 68.57091144 -11.0300293 67.86376953 C-9.56039298 67.6226864 -8.09098771 67.3801902 -6.62182617 67.13623047 C-4.5049929 66.78497808 -2.38736937 66.43888544 -0.26953125 66.09375 C1.00301514 65.88427734 2.27556152 65.67480469 3.58666992 65.45898438 C6.45503911 65.07327991 9.11438566 64.90357178 12 65 C9.2043509 60.6366972 6.14204533 56.67049028 2.75 52.75 C1.78101762 51.60436317 0.81226987 50.45852786 -0.15625 49.3125 C-1.91163941 47.24873137 -3.69490604 45.24504036 -5.53125 43.25 C-10.75550822 37.36351187 -10.75550822 37.36351187 -11.40625 33.734375 C-10.99314396 27.82695858 -8.30761186 22.3768118 -6 17 C-5.09392657 14.7123627 -4.19836252 12.42053939 -3.3125 10.125 C-2.68794922 8.52011719 -2.68794922 8.52011719 -2.05078125 6.8828125 C-1.21392329 4.58689734 -0.52355638 2.38189388 0 0 Z " fill="#F8FAFB" transform="translate(777,444)"/>
<path d="M0 0 C0.94875 0.7425 1.8975 1.485 2.875 2.25 C5.79960815 4.35541509 5.79960815 4.35541509 8.53125 3.375 C10.44554916 2.61769484 12.35184826 1.839883 14.25 1.04296875 C18.18661483 -0.45003716 20.82447003 -0.50394327 25 0 C28.58552881 1.63687185 29.79315055 2.68972583 32 6 C32.17207928 8.90184868 32.23201104 11.70544247 32.1953125 14.60546875 C32.1924826 15.44467361 32.18965271 16.28387848 32.18673706 17.14851379 C32.17554385 19.82832103 32.15044101 22.50779381 32.125 25.1875 C32.11496908 27.00455246 32.10584343 28.82161017 32.09765625 30.63867188 C32.07560734 35.09257675 32.04108351 39.54623167 32 44 C28.37 44 24.74 44 21 44 C20.67 33.44 20.34 22.88 20 12 C13.05270463 11.63106761 13.05270463 11.63106761 7 14 C7 23.9 7 33.8 7 44 C3.37 44 -0.26 44 -4 44 C-4.33 33.44 -4.66 22.88 -5 12 C-12.09157371 11.67949202 -12.09157371 11.67949202 -19 14 C-19 23.9 -19 33.8 -19 44 C-22.63 44 -26.26 44 -30 44 C-30 29.81 -30 15.62 -30 1 C-27.03 1 -24.06 1 -21 1 C-21 1.99 -21 2.98 -21 4 C-20.23816406 3.71125 -19.47632813 3.4225 -18.69140625 3.125 C-6.22822163 -1.35614503 -6.22822163 -1.35614503 0 0 Z " fill="#0C0C0C" transform="translate(563,345)"/>
<path d="M0 0 C4.43489499 2.61073064 7.12719547 5.46050611 9.5078125 10.09375 C10.08452743 13.91831948 10.06664932 17.67008377 10.0078125 21.53125 C10.02328125 22.54251953 10.03875 23.55378906 10.0546875 24.59570312 C10.02138235 30.97780211 9.26728082 34.89642532 5.5078125 40.09375 C1.06279723 44.26095181 -3.45101095 44.26741224 -9.3671875 44.34375 C-11.15769531 44.38242187 -11.15769531 44.38242187 -12.984375 44.421875 C-18.01459771 43.95134192 -21.27736194 42.37606587 -24.7421875 38.71875 C-28.48642955 33.10238692 -28.85693589 28.36791115 -28.8671875 21.78125 C-28.89167969 20.96462891 -28.91617187 20.14800781 -28.94140625 19.30664062 C-28.96928226 13.47590827 -27.88782022 8.91262058 -24.4921875 4.09375 C-17.55662189 -1.42639405 -8.50085469 -3.09121989 0 0 Z " fill="#0B0B0B" transform="translate(492.4921875,345.90625)"/>
<path d="M0 0 C4.08398917 2.38107118 6.5787852 4.66656146 8.5546875 9.046875 C8.90115114 11.99958339 8.83844284 14.89192786 8.7421875 17.859375 C8.6803125 20.56125 8.6184375 23.263125 8.5546875 26.046875 C0.6346875 26.046875 -7.2853125 26.046875 -15.4453125 26.046875 C-14.23852929 32.41553919 -14.23852929 32.41553919 -12.4453125 34.046875 C-10.38482772 34.14709887 -8.32072806 34.17653696 -6.2578125 34.171875 C-4.56591797 34.17574219 -4.56591797 34.17574219 -2.83984375 34.1796875 C0.37884117 34.05375506 3.39448822 33.65110127 6.5546875 33.046875 C7.0496875 37.501875 7.0496875 37.501875 7.5546875 42.046875 C-1.005547 44.3296042 -11.26569511 46.17144465 -19.62573242 42.22387695 C-23.06985079 39.99603654 -24.84769805 36.75990183 -26.4453125 33.046875 C-27.12991902 29.3528596 -27.14690467 25.79478511 -27.0703125 22.046875 C-27.09931641 20.62761719 -27.09931641 20.62761719 -27.12890625 19.1796875 C-27.08341207 12.6103276 -25.74418188 8.08761516 -21.4453125 3.046875 C-15.32805798 -1.94680216 -7.44223881 -2.90080874 0 0 Z " fill="#0B0B0B" transform="translate(329.4453125,345.953125)"/>
<path d="M0 0 C0.495 0.99 0.495 0.99 1 2 C0.109375 4.1015625 0.109375 4.1015625 -1.25 6.625 C-2.86985122 9.6455461 -4.26253535 12.62135974 -5.42578125 15.83984375 C-6.96146326 20.04192915 -8.88732083 23.96601007 -10.9375 27.9375 C-13.40012858 32.73464354 -15.72836945 37.55611616 -17.89526367 42.49438477 C-20.11033781 47.51831976 -22.40527531 52.50631102 -24.6875 57.5 C-25.18572266 58.59570312 -25.68394531 59.69140625 -26.19726562 60.8203125 C-26.67228516 61.85929687 -27.14730469 62.89828125 -27.63671875 63.96875 C-28.06686279 64.91169922 -28.49700684 65.85464844 -28.94018555 66.82617188 C-30 69 -30 69 -31 70 C-32.70772358 70.08713831 -34.41898649 70.10700007 -36.12890625 70.09765625 C-37.68061523 70.09282227 -37.68061523 70.09282227 -39.26367188 70.08789062 C-40.35228516 70.07951172 -41.44089844 70.07113281 -42.5625 70.0625 C-44.2012207 70.05573242 -44.2012207 70.05573242 -45.87304688 70.04882812 C-48.58208495 70.03699826 -51.29101599 70.02051543 -54 70 C-49.20902769 60.05672506 -44.06676497 50.43962651 -38.37109375 40.984375 C-36.89920896 38.53921296 -35.51329488 36.09479048 -34.16015625 33.578125 C-30.1641616 26.16908081 -25.54141643 21.25411145 -19 16 C-18.07445312 15.23816406 -17.14890625 14.47632813 -16.1953125 13.69140625 C-14.34519337 12.17184857 -12.48987718 10.65859191 -10.62890625 9.15234375 C-7.00849313 6.18823137 -3.4929259 3.11260732 0 0 Z " fill="#F6F9FA" transform="translate(773,438)"/>
<path d="M0 0 C3.18394294 2.05187434 4.77753169 3.60981679 6.8125 6.8125 C7.15538103 9.73639032 7.28201879 12.26519707 7.203125 15.17578125 C7.19746521 15.96776413 7.19180542 16.75974701 7.18597412 17.57572937 C7.16367308 20.09278094 7.11349139 22.60838243 7.0625 25.125 C7.04242675 26.83656791 7.02417742 28.54815824 7.0078125 30.25976562 C6.96382925 34.44456485 6.89484769 38.628287 6.8125 42.8125 C3.8425 42.8125 0.8725 42.8125 -2.1875 42.8125 C-2.1875 42.1525 -2.1875 41.4925 -2.1875 40.8125 C-2.73277344 41.0290625 -3.27804687 41.245625 -3.83984375 41.46875 C-9.22368915 43.45663138 -14.44191358 45.01739968 -20.1875 43.8125 C-24.08163155 40.82976094 -26.71391692 37.55429677 -27.55859375 32.6640625 C-27.6848398 28.43110669 -27.56100209 25.66907778 -24.8125 22.3125 C-20.64266533 18.34122888 -17.57219947 18.68814672 -12.0625 18.75 C-11.30839844 18.75451172 -10.55429687 18.75902344 -9.77734375 18.76367188 C-7.91402873 18.77546501 -6.05075445 18.79340058 -4.1875 18.8125 C-4.31125 17.53375 -4.435 16.255 -4.5625 14.9375 C-4.63210938 14.21820313 -4.70171875 13.49890625 -4.7734375 12.7578125 C-5.05124749 10.58581755 -5.05124749 10.58581755 -7.1875 8.8125 C-10.0968558 8.66732256 -12.907446 8.62619204 -15.8125 8.6875 C-17.01519531 8.70103516 -17.01519531 8.70103516 -18.2421875 8.71484375 C-20.22408523 8.73843777 -22.20582981 8.77430935 -24.1875 8.8125 C-24.1875 6.1725 -24.1875 3.5325 -24.1875 0.8125 C-17.41959497 -2.44179916 -7.1042157 -2.72405657 0 0 Z " fill="#0C0C0C" transform="translate(422.1875,346.1875)"/>
<path d="M0 0 C3.50021568 1.32154181 6.67630802 2.86523385 9.90625 4.75 C11.26943359 5.53890625 11.26943359 5.53890625 12.66015625 6.34375 C15.5 8 15.5 8 18.33984375 9.65625 C19.24863281 10.1821875 20.15742188 10.708125 21.09375 11.25 C21.91552734 11.72953125 22.73730469 12.2090625 23.58398438 12.703125 C26.36647396 14.25475729 26.36647396 14.25475729 31 16 C31 27.88 31 39.76 31 52 C27.25481423 50.50192569 24.05941111 49.00355402 20.5859375 47.03125 C19.57789063 46.46019531 18.56984375 45.88914062 17.53125 45.30078125 C16.4896875 44.70652344 15.448125 44.11226563 14.375 43.5 C13.32570312 42.90574219 12.27640625 42.31148438 11.1953125 41.69921875 C3.45282062 37.30188041 3.45282062 37.30188041 0 35 C-0.26686213 32.30459685 -0.34818073 29.84152536 -0.29296875 27.1484375 C-0.28872391 26.37440582 -0.28447906 25.60037415 -0.28010559 24.80288696 C-0.26328998 22.32657323 -0.22563395 19.85106842 -0.1875 17.375 C-0.17245682 15.69792841 -0.15876778 14.02084408 -0.14648438 12.34375 C-0.11337721 8.22885419 -0.06157637 4.11456431 0 0 Z " fill="#6052E5" transform="translate(134,305)"/>
<path d="M0 0 C2.68529599 30.40095284 2.68529599 30.40095284 -1.47509766 37.52636719 C-5.2853392 41.1149112 -9.8267109 42.75041639 -14.77197266 44.25097656 C-18.17884079 45.39630545 -20.90700923 47.1981837 -23.9375 49.125 C-28.75345622 52 -28.75345622 52 -31 52 C-31 40.45 -31 28.9 -31 17 C-18.75 10.1875 -18.75 10.1875 -14.90527344 8.05541992 C-13.90012695 7.49443604 -12.89498047 6.93345215 -11.859375 6.35546875 C-10.83295898 5.78465576 -9.80654297 5.21384277 -8.74902344 4.62573242 C-6.0188177 3.08369573 -6.0188177 3.08369573 -3.75878906 1.2902832 C-2 0 -2 0 0 0 Z " fill="#4343B3" transform="translate(232,324)"/>
<path d="M0 0 C6.47229677 3.1674636 12.84323789 6.33727892 18.9375 10.1875 C19.97777344 10.84105469 21.01804688 11.49460937 22.08984375 12.16796875 C23.05019531 12.77253906 24.01054687 13.37710937 25 14 C25.87495117 14.36883301 26.74990234 14.73766602 27.65136719 15.11767578 C30 17 30 17 30.56762695 20.5534668 C30.56683688 22.01895592 30.53867021 23.48459595 30.48828125 24.94921875 C30.48120651 25.72183548 30.47413177 26.49445221 30.46684265 27.29048157 C30.43886255 29.75714142 30.37612407 32.22152704 30.3125 34.6875 C30.2874215 36.35999324 30.26460754 38.03252209 30.24414062 39.70507812 C30.18902491 43.80426109 30.10273296 47.90174507 30 52 C25.89923056 50.40796215 22.19379142 48.5063655 18.375 46.3125 C16.68503906 45.34763672 16.68503906 45.34763672 14.9609375 44.36328125 C14.05807007 43.80000122 14.05807007 43.80000122 13.13696289 43.2253418 C10.92686173 41.89814133 10.92686173 41.89814133 8.11108398 40.80004883 C4.71020752 39.17375721 2.50651177 37.83486262 0 35 C-1.37911093 28.97136979 -1.04315768 23.19896766 -0.6875 17.0625 C-0.6322704 15.40836552 -0.58208934 13.75405429 -0.53710938 12.09960938 C-0.41637805 8.062018 -0.226963 4.03295786 0 0 Z " fill="#5C4EE4" transform="translate(168,363)"/>
<path d="M0 0 C0.67587158 0.39034424 1.35174316 0.78068848 2.0480957 1.18286133 C6.6981811 3.80370124 11.12869134 6.1571828 16.23046875 7.76171875 C21.8702152 9.79873843 26.67528287 11.79743337 30 17 C33.02931821 27.99109977 31.10977325 40.81690028 30 52 C24.09808106 49.77401904 18.78476696 46.60870618 13.3125 43.5 C12.25482422 42.90574219 11.19714844 42.31148438 10.10742188 41.69921875 C9.09873047 41.12816406 8.09003906 40.55710937 7.05078125 39.96875 C6.12950439 39.44732422 5.20822754 38.92589844 4.2590332 38.38867188 C2 37 2 37 0 35 C-0.17510386 32.34708243 -0.23155483 29.80013826 -0.1953125 27.1484375 C-0.1924826 26.37440582 -0.18965271 25.60037415 -0.18673706 24.80288696 C-0.17552754 22.32676843 -0.15042203 19.8510095 -0.125 17.375 C-0.11497118 15.69792188 -0.10584516 14.02083811 -0.09765625 12.34375 C-0.07558574 8.22902777 -0.04105102 4.11457489 0 0 Z " fill="#5C4EE4" transform="translate(168,324)"/>
<path d="M0 0 C14.19 0 28.38 0 43 0 C43 2.97 43 5.94 43 9 C37.72 9 32.44 9 27 9 C27 25.17 27 41.34 27 58 C23.37 58 19.74 58 16 58 C16 41.83 16 25.66 16 9 C10.72 9 5.44 9 0 9 C0 6.03 0 3.06 0 0 Z " fill="#010101" transform="translate(269,331)"/>
<path d="M0 0 C1.03382813 0.01546875 2.06765625 0.0309375 3.1328125 0.046875 C5.875 0.25 5.875 0.25 8.875 1.25 C8.545 3.89 8.215 6.53 7.875 9.25 C7.23691406 9.31058594 6.59882813 9.37117188 5.94140625 9.43359375 C5.11511719 9.51738281 4.28882813 9.60117187 3.4375 9.6875 C2.20193359 9.80931641 2.20193359 9.80931641 0.94140625 9.93359375 C-1.11162025 10.03930815 -1.11162025 10.03930815 -2.125 11.25 C-2.35575082 12.59747084 -2.53653063 13.95377565 -2.6875 15.3125 C-2.831875 16.611875 -2.97625 17.91125 -3.125 19.25 C0.505 19.25 4.135 19.25 7.875 19.25 C7.875 22.22 7.875 25.19 7.875 28.25 C4.245 28.25 0.615 28.25 -3.125 28.25 C-3.125 39.47 -3.125 50.69 -3.125 62.25 C-6.755 62.25 -10.385 62.25 -14.125 62.25 C-14.125 51.03 -14.125 39.81 -14.125 28.25 C-16.435 28.25 -18.745 28.25 -21.125 28.25 C-21.125 25.28 -21.125 22.31 -21.125 19.25 C-18.815 19.25 -16.505 19.25 -14.125 19.25 C-14.15980469 18.51394531 -14.19460938 17.77789062 -14.23046875 17.01953125 C-14.5088674 6.98392265 -14.5088674 6.98392265 -11.125 3.25 C-7.29688923 0.48786053 -4.69371648 -0.117637 0 0 Z " fill="#0B0B0B" transform="translate(454.125,326.75)"/>
<path d="M0 0 C2.31 0 4.62 0 7 0 C7.36738281 1.08087891 7.36738281 1.08087891 7.7421875 2.18359375 C9.86075942 8.26900894 12.09361768 14.28050918 14.5234375 20.25 C14.97090332 21.35029541 15.41836914 22.45059082 15.87939453 23.58422852 C16.78231622 25.79328257 17.69198874 27.99959116 18.60888672 30.20288086 C20.7767448 35.50855866 22.57580041 40.26514784 23 46 C21.35 46 19.7 46 18 46 C17.16209211 44.21046815 16.32980604 42.41830305 15.5 40.625 C15.0359375 39.62726563 14.571875 38.62953125 14.09375 37.6015625 C13 35 13 35 13 33 C6.4 33 -0.2 33 -7 33 C-7.495 35.475 -7.495 35.475 -8 38 C-8.91157699 40.70639177 -9.96214971 43.33768839 -11 46 C-12.98 46 -14.96 46 -17 46 C-15.02728232 39.97787939 -12.94909804 34.00554826 -10.75 28.0625 C-10.45279053 27.25707764 -10.15558105 26.45165527 -9.84936523 25.62182617 C-6.66851388 17.04144836 -3.34756802 8.51645723 0 0 Z " fill="#E8F1F5" transform="translate(861,450)"/>
<path d="M0 0 C4.90030399 2.21900558 6.98541171 5.07286455 9.3359375 9.70703125 C10 12 10 12 10 19 C2.41 19 -5.18 19 -13 19 C-11.57222367 24.02234339 -11.57222367 24.02234339 -10 29 C-8.10448978 29.05441656 -6.2085208 29.09298035 -4.3125 29.125 C-3.25675781 29.14820313 -2.20101562 29.17140625 -1.11328125 29.1953125 C2.02251859 28.99858729 4.17645373 28.33057654 7 27 C7 28.65 7 30.3 7 32 C1.32187686 34.43348135 -2.81388728 35.69843208 -9 35 C-14.10209922 32.30455136 -17.17381037 29.4785689 -19 24 C-19.47326956 18.18887047 -19.85997977 12.85226412 -17.375 7.5 C-16.199375 6.2625 -16.199375 6.2625 -15 5 C-14.113125 4.05125 -13.22625 3.1025 -12.3125 2.125 C-8.02230786 -0.62719873 -4.96281311 -0.93553928 0 0 Z " fill="#C8DCEA" transform="translate(997,462)"/>
<path d="M0 0 C0 3.63 0 7.26 0 11 C-8.75 16 -8.75 16 -11 16 C-11 25.24 -11 34.48 -11 44 C-14.63 44 -18.26 44 -22 44 C-22 29.81 -22 15.62 -22 1 C-18.7 1 -15.4 1 -12 1 C-11.67 2.32 -11.34 3.64 -11 5 C-10.37351562 4.6390625 -9.74703125 4.278125 -9.1015625 3.90625 C-8.28429687 3.4421875 -7.46703125 2.978125 -6.625 2.5 C-5.81289063 2.0359375 -5.00078125 1.571875 -4.1640625 1.09375 C-2 0 -2 0 0 0 Z " fill="#0B0B0B" transform="translate(529,345)"/>
<path d="M0 0 C0 3.63 0 7.26 0 11 C-8.75 16 -8.75 16 -11 16 C-11 25.24 -11 34.48 -11 44 C-14.63 44 -18.26 44 -22 44 C-22 29.81 -22 15.62 -22 1 C-18.7 1 -15.4 1 -12 1 C-11.67 2.32 -11.34 3.64 -11 5 C-10.37351562 4.6390625 -9.74703125 4.278125 -9.1015625 3.90625 C-8.28429687 3.4421875 -7.46703125 2.978125 -6.625 2.5 C-5.81289063 2.0359375 -5.00078125 1.571875 -4.1640625 1.09375 C-2 0 -2 0 0 0 Z " fill="#080808" transform="translate(393,345)"/>
<path d="M0 0 C0 3.3 0 6.6 0 10 C-1.46308594 10.52980469 -2.92617188 11.05960937 -4.43359375 11.60546875 C-7.00499893 12.89299044 -7.00499893 12.89299044 -9 15 C-10.31037348 19.75880525 -10.16767725 24.40341316 -10.0625 29.3125 C-10.07313477 31.28186523 -10.07313477 31.28186523 -10.08398438 33.29101562 C-10.09576078 36.52952831 -10.06632163 39.76229869 -10 43 C-13.63 43 -17.26 43 -21 43 C-21 29.14 -21 15.28 -21 1 C-18.03 1 -15.06 1 -12 1 C-12 2.32 -12 3.64 -12 5 C-11.46890625 4.6390625 -10.9378125 4.278125 -10.390625 3.90625 C-9.68421875 3.4421875 -8.9778125 2.978125 -8.25 2.5 C-7.55390625 2.0359375 -6.8578125 1.571875 -6.140625 1.09375 C-4 0 -4 0 0 0 Z " fill="#0A0A0A" transform="translate(366,346)"/>
<path d="M0 0 C4.34921185 1.38829147 8.51933625 3.01292481 12.7109375 4.8203125 C13.32393707 5.08383514 13.93693665 5.34735779 14.56851196 5.61886597 C16.50500105 6.45196026 18.44001498 7.28841913 20.375 8.125 C21.69651811 8.69423445 23.01813181 9.26324702 24.33984375 9.83203125 C27.5610046 11.21879172 30.78085246 12.60857126 34 14 C34 16.31 34 18.62 34 21 C33.20078125 21.30292969 32.4015625 21.60585938 31.578125 21.91796875 C25.93131911 24.07197334 20.31455781 26.26579959 14.75 28.625 C9.89554183 30.67136069 5.02148391 32.40986343 0 34 C0 31.69 0 29.38 0 27 C3.6006459 25.49144661 7.20605959 23.99464176 10.8125 22.5 C11.83666016 22.07074219 12.86082031 21.64148438 13.91601562 21.19921875 C15.39038086 20.59013672 15.39038086 20.59013672 16.89453125 19.96875 C17.80050049 19.59169922 18.70646973 19.21464844 19.63989258 18.82617188 C22 18 22 18 25 18 C25 17.34 25 16.68 25 16 C24.21367188 15.90847656 23.42734375 15.81695312 22.6171875 15.72265625 C17.91077353 14.78238996 13.60241648 13.14013202 9.125 11.4375 C8.24585938 11.10814453 7.36671875 10.77878906 6.4609375 10.43945312 C4.30541947 9.63113386 2.15190559 8.81787706 0 8 C0 5.36 0 2.72 0 0 Z " fill="#EFF3F7" transform="translate(790,295)"/>
<path d="M0 0 C1.65 0 3.3 0 5 0 C5.01458252 0.70608398 5.02916504 1.41216797 5.04418945 2.13964844 C5.11873167 5.34364674 5.21537205 8.54661016 5.3125 11.75 C5.33505859 12.86117188 5.35761719 13.97234375 5.38085938 15.1171875 C5.41630859 16.18710937 5.45175781 17.25703125 5.48828125 18.359375 C5.51446533 19.34389648 5.54064941 20.32841797 5.56762695 21.34277344 C6.06573226 24.40396946 6.81830079 25.8135421 9 28 C13.13770681 28.6896178 15.1704106 28.55709653 18.67578125 26.203125 C22.14370033 21.42380795 21.78079655 16.95400483 21.8125 11.1875 C21.83763672 10.11306641 21.86277344 9.03863281 21.88867188 7.93164062 C21.94743295 5.28739229 21.98379376 2.64479512 22 0 C23.65 0 25.3 0 27 0 C27 10.89 27 21.78 27 33 C25.35 33 23.7 33 22 33 C21.67 31.68 21.34 30.36 21 29 C20.401875 29.639375 19.80375 30.27875 19.1875 30.9375 C16.34478523 33.61777392 14.49274294 33.95437565 10.625 34.3125 C6.34335673 33.94339282 4.92428304 33.09138492 2 30 C0.13607701 26.2337101 -0.23816331 23.22092277 -0.1953125 19.04296875 C-0.18886719 17.93115234 -0.18242188 16.81933594 -0.17578125 15.67382812 C-0.15902344 14.52333984 -0.14226563 13.37285156 -0.125 12.1875 C-0.11597656 11.01767578 -0.10695313 9.84785156 -0.09765625 8.64257812 C-0.07413732 5.76150947 -0.04126852 2.88086011 0 0 Z " fill="#EDF4F7" transform="translate(920,463)"/>
<path d="M0 0 C0.86625 0.00128906 1.7325 0.00257813 2.625 0.00390625 C5.48392613 0.52584836 6.21775081 1.18530765 8 3.4375 C8.6228433 6.55322188 8.46355069 9.7039207 8.4375 12.875 C8.4674707 14.16374023 8.4674707 14.16374023 8.49804688 15.47851562 C8.49319978 21.72642516 8.49319978 21.72642516 6.22265625 25 C3.90767312 26.49721229 2.72925605 27.00533058 0 27 C-0.66 27.02191406 -1.32 27.04382813 -2 27.06640625 C-5.27430753 26.03679001 -6.27214245 24.35397165 -8 21.4375 C-8.53753467 18.56353436 -8.51507938 15.79048302 -8.4375 12.875 C-8.44458984 12.12025391 -8.45167969 11.36550781 -8.45898438 10.58789062 C-8.42219628 7.37600737 -8.19753781 4.84400868 -6.78515625 1.9375 C-4.42930402 -0.04203448 -3.04966423 -0.06807286 0 0 Z " fill="#F2F2F2" transform="translate(483,354.5625)"/>
<path d="M0 0 C8.58 0 17.16 0 26 0 C24.47587285 3.04825429 22.97883211 5.62301675 21.06640625 8.40625 C20.49986328 9.23253906 19.93332031 10.05882812 19.34960938 10.91015625 C18.75986328 11.76480469 18.17011719 12.61945313 17.5625 13.5 C16.97662109 14.35464844 16.39074219 15.20929688 15.78710938 16.08984375 C13.25037566 19.78120882 10.68847768 23.4153631 8 27 C13.94 27.33 19.88 27.66 26 28 C26 29.65 26 31.3 26 33 C17.09 33 8.18 33 -1 33 C-0.10151131 29.40604522 0.51141892 27.96628063 2.58203125 25.1015625 C3.36223633 24.01101563 3.36223633 24.01101563 4.15820312 22.8984375 C4.70412109 22.14820313 5.25003906 21.39796875 5.8125 20.625 C6.88220009 19.13851689 7.9512234 17.6515465 9.01953125 16.1640625 C9.53080566 15.45797852 10.04208008 14.75189453 10.56884766 14.02441406 C11.85823692 12.20052873 13.06700883 10.34743819 14.26171875 8.4609375 C14.83535156 7.64882813 15.40898438 6.83671875 16 6 C16.66 6 17.32 6 18 6 C18 5.34 18 4.68 18 4 C12.06 4 6.12 4 0 4 C0 2.68 0 1.36 0 0 Z " fill="#E1ECF2" transform="translate(888,463)"/>
<path d="M0 0 C2.31 0 4.62 0 7 0 C7.69685498 1.6210103 8.38222861 3.24696066 9.0625 4.875 C9.44535156 5.77992188 9.82820312 6.68484375 10.22265625 7.6171875 C11 10 11 10 10 12 C9.34 11.01 8.68 10.02 8 9 C7.67 9.33 7.34 9.66 7 10 C7.4167108 15.00052956 8.68356082 19.36913319 10.37890625 24.08203125 C11 26 11 26 11 28 C6.05 28 1.1 28 -4 28 C-4 27.01 -4 26.02 -4 25 C-5.32 24.67 -6.64 24.34 -8 24 C-8 24.99 -8 25.98 -8 27 C-8.66 27 -9.32 27 -10 27 C-7.97607539 20.72555221 -5.73023007 14.57015561 -3.3125 8.4375 C-2.83200195 7.21063477 -2.83200195 7.21063477 -2.34179688 5.95898438 C-1.56321746 3.97186378 -0.78190155 1.98581573 0 0 Z " fill="#E4EEF4" transform="translate(861,450)"/>
<path d="M0 0 C11.22 0 22.44 0 34 0 C34 2.64 34 5.28 34 8 C22.78 8 11.56 8 0 8 C0 5.36 0 2.72 0 0 Z " fill="#EDF4F8" transform="translate(832,321)"/>
<path d="M0 0 C1.46343456 2.92686912 1.1704426 5.55453613 1.1875 8.8125 C1.20167969 10.03582031 1.21585938 11.25914062 1.23046875 12.51953125 C1.01147479 15.82671123 0.42682853 18.0391898 -1 21 C-1.33 20.01 -1.66 19.02 -2 18 C-2.66 18.33 -3.32 18.66 -4 19 C-7.93429172 19.52457223 -9.54458957 19.30690703 -12.875 17.0625 C-15.37800692 13.45522532 -15.69236945 11.38878848 -15.40625 7.08984375 C-15 5 -15 5 -13.5625 2.5 C-9.35282999 0.03580292 -4.80097811 0 0 0 Z " fill="#025AA4" transform="translate(859,503)"/>
<path d="M0 0 C2.8125 0.3125 2.8125 0.3125 3.8125 1.3125 C3.85313832 2.97867115 3.855221 4.64638095 3.8125 6.3125 C2.74 6.209375 1.6675 6.10625 0.5625 6 C-3.16971432 5.95553576 -3.16971432 5.95553576 -5.375 8.09375 C-8.11020814 12.95110238 -7.86375298 17.63755162 -7.9375 23.125 C-7.96714844 24.19943359 -7.99679687 25.27386719 -8.02734375 26.38085938 C-8.09784921 29.02481427 -8.15064143 31.6678973 -8.1875 34.3125 C-10.1675 34.3125 -12.1475 34.3125 -14.1875 34.3125 C-14.1875 23.4225 -14.1875 12.5325 -14.1875 1.3125 C-12.2075 1.3125 -10.2275 1.3125 -8.1875 1.3125 C-7.8575 2.3025 -7.5275 3.2925 -7.1875 4.3125 C-6.65125 3.6525 -6.115 2.9925 -5.5625 2.3125 C-3.1875 0.3125 -3.1875 0.3125 0 0 Z " fill="#DCE9F2" transform="translate(971.1875,461.6875)"/>
<path d="M0 0 C0.33 0 0.66 0 1 0 C1 2.31 1 4.62 1 7 C-6.26 7 -13.52 7 -21 7 C-20.01 9.64 -19.02 12.28 -18 15 C-17.67 15.99 -17.34 16.98 -17 18 C-15.10448978 18.05441656 -13.2085208 18.09298035 -11.3125 18.125 C-10.25675781 18.14820313 -9.20101562 18.17140625 -8.11328125 18.1953125 C-4.97748141 17.99858729 -2.82354627 17.33057654 0 16 C0 17.65 0 19.3 0 21 C-5.67812314 23.43348135 -9.81388728 24.69843208 -16 24 C-19.91857679 21.92980849 -22.76988614 19.83787036 -25 16 C-25.29296875 12.546875 -25.29296875 12.546875 -25.1875 8.75 C-25.16042969 7.48671875 -25.13335938 6.2234375 -25.10546875 4.921875 C-25.07066406 3.95765625 -25.03585937 2.9934375 -25 2 C-23.68 2 -22.36 2 -21 2 C-21 2.66 -21 3.32 -21 4 C-18.06217531 3.85924795 -15.12484829 3.7126162 -12.1875 3.5625 C-11.35412109 3.52318359 -10.52074219 3.48386719 -9.66210938 3.44335938 C-8.85966797 3.40146484 -8.05722656 3.35957031 -7.23046875 3.31640625 C-6.49207764 3.27974854 -5.75368652 3.24309082 -4.99291992 3.20532227 C-2.792505 3.05157859 -2.792505 3.05157859 0 2 C0 1.34 0 0.68 0 0 Z " fill="#FBFCFB" transform="translate(1004,473)"/>
<path d="M0 0 C1.8871875 0.061875 1.8871875 0.061875 3.8125 0.125 C4.1425 1.115 4.4725 2.105 4.8125 3.125 C5.1425 2.135 5.4725 1.145 5.8125 0.125 C6.4725 0.125 7.1325 0.125 7.8125 0.125 C8.1425 2.105 8.4725 4.085 8.8125 6.125 C9.988125 5.815625 9.988125 5.815625 11.1875 5.5 C12.486875 5.314375 12.486875 5.314375 13.8125 5.125 C15.8125 7.125 15.8125 7.125 16.0078125 9.7265625 C15.98460937 10.72429688 15.96140625 11.72203125 15.9375 12.75 C15.91945313 13.75289062 15.90140625 14.75578125 15.8828125 15.7890625 C15.85960937 16.55992187 15.83640625 17.33078125 15.8125 18.125 C15.1525 18.125 14.4925 18.125 13.8125 18.125 C13.3175 13.175 13.3175 13.175 12.8125 8.125 C11.4925 8.455 10.1725 8.785 8.8125 9.125 C8.4825 12.095 8.1525 15.065 7.8125 18.125 C7.1525 18.125 6.4925 18.125 5.8125 18.125 C5.4825 16.145 5.1525 14.165 4.8125 12.125 C4.4825 13.775 4.1525 15.425 3.8125 17.125 C0.93038698 18.08570434 -0.88600044 18.23081883 -3.875 18.1875 C-5.08736328 18.17396484 -5.08736328 18.17396484 -6.32421875 18.16015625 C-6.93910156 18.14855469 -7.55398438 18.13695312 -8.1875 18.125 C-8.1875 17.465 -8.1875 16.805 -8.1875 16.125 C-5.8775 16.125 -3.5675 16.125 -1.1875 16.125 C-1.1875 14.805 -1.1875 13.485 -1.1875 12.125 C-3.54524595 10.44365712 -3.54524595 10.44365712 -6.1875 9.125 C-6.8475 8.465 -7.5075 7.805 -8.1875 7.125 C-8 4.625 -8 4.625 -7.1875 2.125 C-4.09861478 0.06574319 -3.47814073 -0.1140374 0 0 Z " fill="#1967AA" transform="translate(924.1875,502.875)"/>
<path d="M0 0 C0 6.27 0 12.54 0 19 C-10.66666667 20.33333333 -10.66666667 20.33333333 -13 20 C-15.49602608 17.76218351 -15.9534013 16.31953394 -16.4375 13 C-16 10 -16 10 -14.3125 7.5625 C-12 6 -12 6 -9.375 6.1875 C-7 7 -7 7 -5 8 C-4.87625 6.865625 -4.7525 5.73125 -4.625 4.5625 C-4.41875 3.386875 -4.2125 2.21125 -4 1 C-2 0 -2 0 0 0 Z " fill="#0356A2" transform="translate(959,502)"/>
<path d="M0 0 C1.64204465 2.46306697 2.54844776 4.21828633 3.5078125 6.94140625 C3.77207031 7.68970703 4.03632812 8.43800781 4.30859375 9.20898438 C4.57800781 9.98564453 4.84742188 10.76230469 5.125 11.5625 C5.40214844 12.34302734 5.67929687 13.12355469 5.96484375 13.92773438 C8 19.73745382 8 19.73745382 8 22 C3.05 22 -1.9 22 -7 22 C-6.27636497 17.65818982 -5.70630431 14.87069392 -4.0625 11 C-2.5549999 7.37103613 -1.18433003 3.75037843 0 0 Z " fill="#1364AA" transform="translate(864,456)"/>
<path d="M0 0 C2.45862401 -0.05383848 4.9160755 -0.09359038 7.375 -0.125 C8.42300781 -0.15013672 8.42300781 -0.15013672 9.4921875 -0.17578125 C11.32897486 -0.19344267 13.16601963 -0.10303261 15 0 C17 2 17 2 17.23046875 3.91015625 C17.11111111 9.88888889 17.11111111 9.88888889 16 11 C14.00041636 11.04080783 11.99954746 11.04254356 10 11 C10 12.65 10 14.3 10 16 C9.01 16 8.02 16 7 16 C7 11.71 7 7.42 7 3 C6.01 3.33 5.02 3.66 4 4 C3.67 6.31 3.34 8.62 3 11 C2.01 11 1.02 11 0 11 C0 7.37 0 3.74 0 0 Z " fill="#3E3E3E" transform="translate(339,308)"/>
<path d="M0 0 C2.31 0.33 4.62 0.66 7 1 C7.33 0.67 7.66 0.34 8 0 C10.33297433 -0.04092937 12.66705225 -0.04241723 15 0 C15 0.99 15 1.98 15 3 C13.02 3 11.04 3 9 3 C9 5.97 9 8.94 9 12 C10.98 12 12.96 12 15 12 C15 12.99 15 13.98 15 15 C10.38 15 5.76 15 1 15 C0.67 10.05 0.34 5.1 0 0 Z " fill="#202020" transform="translate(312,304)"/>
<path d="M0 0 C0.66 0 1.32 0 2 0 C2 5.94 2 11.88 2 18 C-6 19 -6 19 -8.5 17.4375 C-10.40657541 14.33931496 -10.53312164 12.57953104 -10 9 C-8.9375 7.125 -8.9375 7.125 -7 6 C-3.3125 5.8125 -3.3125 5.8125 0 6 C0 4.02 0 2.04 0 0 Z " fill="#D3E2ED" transform="translate(904,503)"/>
<path d="M0 0 C0.33 0.66 0.66 1.32 1 2 C1.99 1.67 2.98 1.34 4 1 C4.66 1.33 5.32 1.66 6 2 C3.80962826 8.72045875 1.44234339 15.36724003 -1 22 C-3.64 22 -6.28 22 -9 22 C-7.84134757 17.45451737 -6.4095942 13.9850981 -4 10 C-2.58793826 6.6966931 -1.28342055 3.35513494 0 0 Z " fill="#0D61A7" transform="translate(771,444)"/>
<path d="M0 0 C2.32749345 3.49124017 2.50299316 4.89222251 2 9 C0.375 11.4375 0.375 11.4375 -2 13 C-5.6985004 12.85205998 -7.35805573 12.64194427 -10 10 C-10.67973856 2.8627451 -10.67973856 2.8627451 -8.375 -0.0625 C-5.16733041 -1.32868536 -3.2708979 -0.99549067 0 0 Z " fill="#D8E3ED" transform="translate(876,509)"/>
<path d="M0 0 C1.9375 1.125 1.9375 1.125 3 3 C3.33 4.98 3.66 6.96 4 9 C-1.61 9 -7.22 9 -13 9 C-12 3 -12 3 -10.4375 1.125 C-6.72638748 -0.58782116 -4.08259236 -0.38881832 0 0 Z " fill="#0A5FA6" transform="translate(997,467)"/>
<path d="M0 0 C0.33 0 0.66 0 1 0 C1 11.88 1 23.76 1 36 C0.34 36 -0.32 36 -1 36 C-1 36.66 -1 37.32 -1 38 C-6.06409476 36.55199764 -10.13105167 34.31382048 -14.5625 31.5625 C-15.20896484 31.16740234 -15.85542969 30.77230469 -16.52148438 30.36523438 C-17.77501837 29.59883159 -19.02719986 28.83021099 -20.27783203 28.05908203 C-22.50767358 26.68779586 -24.75227864 25.34173002 -27 24 C-25.25952148 22.88208008 -25.25952148 22.88208008 -23 22 C-20.97290039 22.64331055 -20.97290039 22.64331055 -18.84765625 23.88671875 C-18.07099609 24.33080078 -17.29433594 24.77488281 -16.49414062 25.23242188 C-15.29047852 25.95268555 -15.29047852 25.95268555 -14.0625 26.6875 C-13.26392578 27.14833984 -12.46535156 27.60917969 -11.64257812 28.08398438 C-7.73575372 30.34651152 -3.87136865 32.67717881 0 35 C0 23.45 0 11.9 0 0 Z " fill="#E1DFF9" transform="translate(198,341)"/>
<path d="M0 0 C1.5 1.375 1.5 1.375 3 3 C3 3.66 3 4.32 3 5 C4.89551022 5.05441656 6.7914792 5.09298035 8.6875 5.125 C9.74324219 5.14820313 10.79898438 5.17140625 11.88671875 5.1953125 C15.02251859 4.99858729 17.17645373 4.33057654 20 3 C20 4.65 20 6.3 20 8 C14.32187686 10.43348135 10.18611272 11.69843208 4 11 C0.05601918 8.91638749 -2.58727648 6.75312548 -5 3 C-4.67 2.34 -4.34 1.68 -4 1 C-2.68 1.66 -1.36 2.32 0 3 C0 2.01 0 1.02 0 0 Z " fill="#D9E8F0" transform="translate(984,486)"/>
<path d="M0 0 C0 0.99 0 1.98 0 3 C-0.92232422 3.20302734 -0.92232422 3.20302734 -1.86328125 3.41015625 C-3.07564453 3.73306641 -3.07564453 3.73306641 -4.3125 4.0625 C-5.11300781 4.25972656 -5.91351562 4.45695312 -6.73828125 4.66015625 C-9.91946737 6.24422777 -9.91946737 6.24422777 -12 13 C-6.39 13 -0.78 13 5 13 C5 13.33 5 13.66 5 14 C-0.94 14 -6.88 14 -13 14 C-13.33 13.34 -13.66 12.68 -14 12 C-14.66 12 -15.32 12 -16 12 C-16.33 15.63 -16.66 19.26 -17 23 C-17.33 23 -17.66 23 -18 23 C-18.62626649 11.27489964 -18.62626649 11.27489964 -16.25 6.4375 C-15.5075 5.633125 -14.765 4.82875 -14 4 C-13.46375 3.21625 -12.9275 2.4325 -12.375 1.625 C-8.56093425 -0.98462393 -4.48264656 -0.30796808 0 0 Z " fill="#D0E1EC" transform="translate(996,463)"/>
<path d="M0 0 C1.32 0 2.64 0 4 0 C4 1.98 4 3.96 4 6 C5.65 6 7.3 6 9 6 C9 4.02 9 2.04 9 0 C9.99 0 10.98 0 12 0 C12 4.95 12 9.9 12 15 C11.01 15 10.02 15 9 15 C9 13.02 9 11.04 9 9 C7.02 9 5.04 9 3 9 C3 10.98 3 12.96 3 15 C2.01 15 1.02 15 0 15 C0 10.05 0 5.1 0 0 Z " fill="#505050" transform="translate(268,304)"/>
<path d="M0 0 C1.9375 1.125 1.9375 1.125 3 3 C3 4.98 3 6.96 3 9 C-1.29 9 -5.58 9 -10 9 C-10 3 -10 3 -8.9375 1.125 C-5.8930714 -0.64273274 -3.4368988 -0.36823916 0 0 Z " fill="#EAEAEA" transform="translate(325,354)"/>
<path d="M0 0 C2.375 0.875 2.375 0.875 4.375 2.875 C4.5 5.5 4.5 5.5 4.375 7.875 C1.735 7.875 -0.905 7.875 -3.625 7.875 C-3.295 8.865 -2.965 9.855 -2.625 10.875 C-0.645 10.875 1.335 10.875 3.375 10.875 C3.375 11.535 3.375 12.195 3.375 12.875 C1.065 13.205 -1.245 13.535 -3.625 13.875 C-5.81507834 11.50241513 -6.590678 10.11035087 -7.0625 6.875 C-6.625 3.875 -6.625 3.875 -4.9375 1.4375 C-2.625 -0.125 -2.625 -0.125 0 0 Z " fill="#D6E3ED" transform="translate(949.625,508.125)"/>
<path d="M0 0 C1.65322266 0.01740234 1.65322266 0.01740234 3.33984375 0.03515625 C4.99693359 0.04869141 4.99693359 0.04869141 6.6875 0.0625 C7.54214844 0.07410156 8.39679688 0.08570313 9.27734375 0.09765625 C9.27734375 2.40765625 9.27734375 4.71765625 9.27734375 7.09765625 C6.43520307 8.04503648 4.60125984 8.23226184 1.65234375 8.22265625 C0.45738281 8.22652344 0.45738281 8.22652344 -0.76171875 8.23046875 C-2.72265625 8.09765625 -2.72265625 8.09765625 -3.72265625 7.09765625 C-3.84765625 4.09765625 -3.84765625 4.09765625 -3.72265625 1.09765625 C-2.72265625 0.09765625 -2.72265625 0.09765625 0 0 Z " fill="#DFDFDF" transform="translate(409.72265625,372.90234375)"/>
<path d="M0 0 C2.5625 0.3125 2.5625 0.3125 4.4375 1.375 C6.22560335 4.45451133 5.30842606 6.95583273 4.5625 10.3125 C3.5625 11.3125 3.5625 11.3125 0.625 11.5 C-2.4375 11.3125 -2.4375 11.3125 -4.4375 9.3125 C-4.6875 5.8125 -4.6875 5.8125 -4.4375 2.3125 C-2.4375 0.3125 -2.4375 0.3125 0 0 Z " fill="#242424" transform="translate(332.4375,307.6875)"/>
<path d="M0 0 C0.99 0 1.98 0 3 0 C3 1.65 3 3.3 3 5 C5.31 5 7.62 5 10 5 C10 8.3 10 11.6 10 15 C9.01 15 8.02 15 7 15 C7 12.36 7 9.72 7 7 C5.68 7 4.36 7 3 7 C3 9.64 3 12.28 3 15 C2.01 15 1.02 15 0 15 C0 10.05 0 5.1 0 0 Z " fill="#2F2F2F" transform="translate(301,304)"/>
<path d="M0 0 C0 0.66 0 1.32 0 2 C-1.27875 2.12375 -2.5575 2.2475 -3.875 2.375 C-7.34790936 2.69042399 -7.34790936 2.69042399 -10 5 C-10.34490322 9.05261287 -10.30163882 10.54754176 -8 14 C-6.03638136 14.57748803 -6.03638136 14.57748803 -3.875 14.6875 C-2.59625 14.790625 -1.3175 14.89375 0 15 C0 15.66 0 16.32 0 17 C-2.88861709 18.44430855 -4.79647701 18.37688506 -8 18 C-11.02883418 15.95882914 -12.70071921 14.46257223 -13.44921875 10.8046875 C-13.62593988 7.11182518 -13.3853882 4.68699635 -11.5625 1.4375 C-7.7722199 -0.68875469 -4.25016698 -0.32693592 0 0 Z " fill="#E0EAF3" transform="translate(857,504)"/>
<path d="M0 0 C2.875 -0.125 2.875 -0.125 6 0 C8 2 8 2 8.1953125 4.1640625 C8.17210937 4.97617187 8.14890625 5.78828125 8.125 6.625 C8.10695313 7.44226563 8.08890625 8.25953125 8.0703125 9.1015625 C8.03550781 10.04128906 8.03550781 10.04128906 8 11 C5.36 11 2.72 11 0 11 C0 9.02 0 7.04 0 5 C1.65 5 3.3 5 5 5 C5 4.34 5 3.68 5 3 C3.35 3 1.7 3 0 3 C0 2.01 0 1.02 0 0 Z " fill="#444444" transform="translate(282,308)"/>
<path d="M0 0 C5 1 5 1 6 2 C6.07244053 4.01964199 6.08377188 6.04167124 6.0625 8.0625 C6.05347656 9.16722656 6.04445313 10.27195312 6.03515625 11.41015625 C6.02355469 12.26480469 6.01195312 13.11945313 6 14 C4.35 14.33 2.7 14.66 1 15 C0.67 10.05 0.34 5.1 0 0 Z " fill="#7F7F7F" transform="translate(312,304)"/>
<path d="M0 0 C0.66 0 1.32 0 2 0 C2.33 1.98 2.66 3.96 3 6 C3.78375 5.79375 4.5675 5.5875 5.375 5.375 C6.674375 5.189375 6.674375 5.189375 8 5 C10 7 10 7 10.1953125 9.6015625 C10.17210937 10.59929688 10.14890625 11.59703125 10.125 12.625 C10.10695313 13.62789062 10.08890625 14.63078125 10.0703125 15.6640625 C10.03550781 16.82035156 10.03550781 16.82035156 10 18 C9.34 18 8.68 18 8 18 C7.67 14.7 7.34 11.4 7 8 C5.68 8.33 4.36 8.66 3 9 C2.67 11.97 2.34 14.94 2 18 C1.34 18 0.68 18 0 18 C0 12.06 0 6.12 0 0 Z " fill="#E8F0F5" transform="translate(930,503)"/>
<path d="M0 0 C2.05078125 0.03255208 4.1015625 0.06510417 6.15234375 0.09765625 C6.15234375 0.75765625 6.15234375 1.41765625 6.15234375 2.09765625 C3.84234375 2.42765625 1.53234375 2.75765625 -0.84765625 3.09765625 C0.27674072 6.06197554 0.899405 6.96516453 3.77734375 8.47265625 C4.56109375 9.00890625 5.34484375 9.54515625 6.15234375 10.09765625 C6.52734375 13.22265625 6.52734375 13.22265625 6.15234375 16.09765625 C5.15234375 17.09765625 5.15234375 17.09765625 3.0859375 17.1953125 C2.26222656 17.18371094 1.43851563 17.17210937 0.58984375 17.16015625 C-0.23644531 17.15113281 -1.06273437 17.14210938 -1.9140625 17.1328125 C-2.87119141 17.11541016 -2.87119141 17.11541016 -3.84765625 17.09765625 C-3.84765625 16.43765625 -3.84765625 15.77765625 -3.84765625 15.09765625 C-1.53765625 15.09765625 0.77234375 15.09765625 3.15234375 15.09765625 C3.15234375 13.77765625 3.15234375 12.45765625 3.15234375 11.09765625 C0.7945978 9.41631337 0.7945978 9.41631337 -1.84765625 8.09765625 C-2.50765625 7.43765625 -3.16765625 6.77765625 -3.84765625 6.09765625 C-3.12417691 0.16512563 -3.12417691 0.16512563 0 0 Z " fill="#D8E5EE" transform="translate(919.84765625,503.90234375)"/>
<path d="M0 0 C4.55555556 0.55555556 4.55555556 0.55555556 6 2 C5.71269945 4.33944736 5.38063221 6.6739143 5 9 C2.625 9.625 2.625 9.625 0 10 C-2 8 -2 8 -2.25 5 C-2 2 -2 2 0 0 Z " fill="#1764A8" transform="translate(870,510)"/>
<path d="M0 0 C2.8125 0.3125 2.8125 0.3125 3.8125 1.3125 C3.85313832 2.97867115 3.855221 4.64638095 3.8125 6.3125 C2.74 6.250625 1.6675 6.18875 0.5625 6.125 C-3.29616187 6.31793309 -4.47567788 6.70915076 -7.1875 9.3125 C-7.8475 8.9825 -8.5075 8.6525 -9.1875 8.3125 C-9.1875 6.0025 -9.1875 3.6925 -9.1875 1.3125 C-8.1975 2.7975 -8.1975 2.7975 -7.1875 4.3125 C-6.65125 3.6525 -6.115 2.9925 -5.5625 2.3125 C-3.1875 0.3125 -3.1875 0.3125 0 0 Z " fill="#C5DAE9" transform="translate(971.1875,461.6875)"/>
<path d="M0 0 C4.875 0.875 4.875 0.875 6 2 C6.1875 4.9375 6.1875 4.9375 6 8 C5.34 8.66 4.68 9.32 4 10 C1.375 9.625 1.375 9.625 -1 9 C-1.125 2.25 -1.125 2.25 0 0 Z " fill="#1964AA" transform="translate(898,510)"/>
<path d="M0 0 C6.6 0 13.2 0 20 0 C19.67 1.65 19.34 3.3 19 5 C18.67 4.34 18.34 3.68 18 3 C12.06 3 6.12 3 0 3 C0 2.01 0 1.02 0 0 Z " fill="#F8FAFB" transform="translate(889,464)"/>
<path d="M0 0 C1.4540625 0.0309375 1.4540625 0.0309375 2.9375 0.0625 C2.9375 1.0525 2.9375 2.0425 2.9375 3.0625 C1.9475 3.5575 1.9475 3.5575 0.9375 4.0625 C1.9275 4.7225 2.9175 5.3825 3.9375 6.0625 C3.9375 7.3825 3.9375 8.7025 3.9375 10.0625 C1.22870665 11.41689668 -1.07183268 11.12751451 -4.0625 11.0625 C-4.0625 10.4025 -4.0625 9.7425 -4.0625 9.0625 C-2.4125 9.0625 -0.7625 9.0625 0.9375 9.0625 C0.6075 8.4025 0.2775 7.7425 -0.0625 7.0625 C-2.08713255 6.41036708 -2.08713255 6.41036708 -4.0625 6.0625 C-4.105221 4.39638095 -4.10313832 2.72867115 -4.0625 1.0625 C-3.0625 0.0625 -3.0625 0.0625 0 0 Z " fill="#222222" transform="translate(296.0625,307.9375)"/>
<path d="M0 0 C0.90492188 0.02320313 1.80984375 0.04640625 2.7421875 0.0703125 C4.10730469 0.09738281 4.10730469 0.09738281 5.5 0.125 C6.19867187 0.14820313 6.89734375 0.17140625 7.6171875 0.1953125 C7.6171875 1.1853125 7.6171875 2.1753125 7.6171875 3.1953125 C6.69486328 3.46794922 6.69486328 3.46794922 5.75390625 3.74609375 C4.94566406 3.99746094 4.13742187 4.24882812 3.3046875 4.5078125 C2.10392578 4.87326172 2.10392578 4.87326172 0.87890625 5.24609375 C-1.48245823 6.23713273 -2.72161243 7.27606193 -4.3828125 9.1953125 C-4.3828125 8.2053125 -4.3828125 7.2153125 -4.3828125 6.1953125 C-5.0428125 6.1953125 -5.7028125 6.1953125 -6.3828125 6.1953125 C-3.63053977 0.29758523 -3.63053977 0.29758523 0 0 Z " fill="#F1F6F7" transform="translate(988.3828125,462.8046875)"/>
<path d="M0 0 C0.66 0 1.32 0 2 0 C2 6.27 2 12.54 2 19 C1.01 19 0.02 19 -1 19 C-1.02683987 16.02077407 -1.04676037 13.04178705 -1.0625 10.0625 C-1.07087891 9.21236328 -1.07925781 8.36222656 -1.08789062 7.48632812 C-1.09111328 6.67744141 -1.09433594 5.86855469 -1.09765625 5.03515625 C-1.10289307 4.2862915 -1.10812988 3.53742676 -1.11352539 2.76586914 C-1 1 -1 1 0 0 Z " fill="#9FBED9" transform="translate(957,502)"/>
<path d="M0 0 C0.66 0.66 1.32 1.32 2 2 C2.99 2 3.98 2 5 2 C5.33 1.34 5.66 0.68 6 0 C6 3.3 6 6.6 6 10 C4.34385343 10.38218767 2.67542976 10.71395102 1 11 C0 10 0 10 -0.09765625 7.71484375 C-0.08605469 6.79832031 -0.07445312 5.88179687 -0.0625 4.9375 C-0.05347656 4.01839844 -0.04445313 3.09929688 -0.03515625 2.15234375 C-0.02355469 1.44207031 -0.01195312 0.73179687 0 0 Z " fill="#1762A7" transform="translate(883,509)"/>
<path d="M0 0 C-0.66 0 -1.32 0 -2 0 C-1.85904936 1.6254308 -1.71207913 3.25034051 -1.5625 4.875 C-1.48128906 5.77992188 -1.40007813 6.68484375 -1.31640625 7.6171875 C-1.13010715 10.01110861 -1.13010715 10.01110861 0 12 C-1.98 11.34 -3.96 10.68 -6 10 C-5.9071875 8.39125 -5.9071875 8.39125 -5.8125 6.75 C-6.00543309 2.89133813 -6.39665076 1.71182212 -9 -1 C-5.22102349 -2.0497157 -3.35080929 -2.10976881 0 0 Z " fill="#1B66AA" transform="translate(883,509)"/>
<path d="M0 0 C0.33 0.66 0.66 1.32 1 2 C1.99 1.67 2.98 1.34 4 1 C4.66 1.33 5.32 1.66 6 2 C5.01 4.97 4.02 7.94 3 11 C2.67 10.01 2.34 9.02 2 8 C0.35 8 -1.3 8 -3 8 C-1.125 2.25 -1.125 2.25 0 0 Z " fill="#226EAD" transform="translate(771,444)"/>
<path d="M0 0 C-0.99 1.485 -0.99 1.485 -2 3 C-4.7885289 3.22107787 -7.34653181 3.28107535 -10.125 3.1875 C-10.87910156 3.17396484 -11.63320313 3.16042969 -12.41015625 3.14648438 C-14.27374127 3.11109985 -16.13695978 3.05729167 -18 3 C-18 2.34 -18 1.68 -18 1 C-15.75152519 0.63627613 -13.50113812 0.28435904 -11.25 -0.0625 C-9.99703125 -0.25972656 -8.7440625 -0.45695313 -7.453125 -0.66015625 C-4.49983411 -0.95080818 -2.7397586 -0.98935727 0 0 Z " fill="#D5E4EF" transform="translate(771,513)"/>
<path d="M0 0 C4.8274799 1.41292095 8.7162359 3.42974154 13 6 C12.01 6.99 11.02 7.98 10 9 C6.04 6.69 2.08 4.38 -2 2 C-1.34 1.34 -0.68 0.68 0 0 Z " fill="#EDECFB" transform="translate(173,363)"/>
<path d="M0 0 C0.33 0 0.66 0 1 0 C1 11.55 1 23.1 1 35 C-0.65 34.34 -2.3 33.68 -4 33 C-3.01 32.34 -2.02 31.68 -1 31 C-0.48745872 27.7998894 -0.48745872 27.7998894 -0.48828125 24.0234375 C-0.47033005 23.33819 -0.45237885 22.6529425 -0.43388367 21.94692993 C-0.37966292 19.75634941 -0.34584947 17.5659881 -0.3125 15.375 C-0.27933706 13.89059441 -0.24484835 12.40621779 -0.20898438 10.921875 C-0.12393185 7.28146088 -0.05717644 3.64097056 0 0 Z " fill="#675AE6" transform="translate(197,380)"/>
<path d="M0 0 C0.33 0.99 0.66 1.98 1 3 C4.3 3 7.6 3 11 3 C11 3.33 11 3.66 11 4 C8.36 4 5.72 4 3 4 C3.33 4.99 3.66 5.98 4 7 C5.98 7 7.96 7 10 7 C10 7.66 10 8.32 10 9 C7.69 9.33 5.38 9.66 3 10 C0.64551835 7.44931155 0.01672076 6.28982642 -0.1875 2.75 C-0.125625 1.8425 -0.06375 0.935 0 0 Z " fill="#AEC7DE" transform="translate(943,512)"/>
<path d="M0 0 C2.97 0.495 2.97 0.495 6 1 C6 1.66 6 2.32 6 3 C5.01 3.495 5.01 3.495 4 4 C3.59270772 6.32156597 3.25561323 8.6568787 3 11 C2.01 11 1.02 11 0 11 C0 7.37 0 3.74 0 0 Z " fill="#323232" transform="translate(339,308)"/>
<path d="M0 0 C0.66 0 1.32 0 2 0 C2 1.98 2 3.96 2 6 C3.65 6 5.3 6 7 6 C7.33 6.66 7.66 7.32 8 8 C6.02 8 4.04 8 2 8 C2 9.98 2 11.96 2 14 C1.34 14 0.68 14 0 14 C0 9.38 0 4.76 0 0 Z " fill="#0F0F0F" transform="translate(269,305)"/>
<path d="M0 0 C0.33 0.474375 0.66 0.94875 1 1.4375 C4.09813267 3.85791615 7.12026792 3.68198917 11 4 C11 4.66 11 5.32 11 6 C8.19084526 7.40457737 6.11189466 7.24895157 3 7 C0.625 5.5 0.625 5.5 -1 4 C-0.67 2.68 -0.34 1.36 0 0 Z " fill="#B8CDE1" transform="translate(846,515)"/>
<path d="M0 0 C4.875 0.875 4.875 0.875 6 2 C6.07226502 3.85287502 6.0838122 5.70833878 6.0625 7.5625 C6.05347656 8.57441406 6.04445313 9.58632813 6.03515625 10.62890625 C6.02355469 11.41136719 6.01195312 12.19382812 6 13 C5.34 13 4.68 13 4 13 C3.67 9.7 3.34 6.4 3 3 C1.35 3.33 -0.3 3.66 -2 4 C-1.34 2.68 -0.68 1.36 0 0 Z " fill="#D3E0EB" transform="translate(934,508)"/>
<path d="M0 0 C1.134375 0.020625 2.26875 0.04125 3.4375 0.0625 C3.4375 1.0525 3.4375 2.0425 3.4375 3.0625 C1.4575 3.0625 -0.5225 3.0625 -2.5625 3.0625 C-2.5625 6.0325 -2.5625 9.0025 -2.5625 12.0625 C-2.8925 12.0625 -3.2225 12.0625 -3.5625 12.0625 C-4.1370952 8.32763121 -4.5625 4.84956732 -4.5625 1.0625 C-3.5625 0.0625 -3.5625 0.0625 0 0 Z " fill="#3B3B3B" transform="translate(323.5625,303.9375)"/>
<path d="M0 0 C0.66 0 1.32 0 2 0 C2 1.32 2 2.64 2 4 C3.65 4.33 5.3 4.66 7 5 C7 5.66 7 6.32 7 7 C5.35 7 3.7 7 2 7 C2 7.66 2 8.32 2 9 C1.34 9 0.68 9 0 9 C0 6.03 0 3.06 0 0 Z " fill="#C8C8C8" transform="translate(290,310)"/>
<path d="M0 0 C1.65 0 3.3 0 5 0 C5 3.3 5 6.6 5 10 C4.01 10 3.02 10 2 10 C2 7.03 2 4.06 2 1 C1.34 0.67 0.68 0.34 0 0 Z " fill="#272727" transform="translate(306,309)"/>
<path d="M0 0 C0.33 0 0.66 0 1 0 C1.33 1.65 1.66 3.3 2 5 C2.33 5 2.66 5 3 5 C3.28875 5.94875 3.5775 6.8975 3.875 7.875 C4.76825109 11.05211578 4.76825109 11.05211578 7 13 C4.69 12.67 2.38 12.34 0 12 C0 8.04 0 4.08 0 0 Z " fill="#1160A8" transform="translate(863,509)"/>
<path d="M0 0 C8.19256018 -0.4726477 8.19256018 -0.4726477 11.5625 1.5 C12.036875 1.995 12.51125 2.49 13 3 C11.375 4.5625 11.375 4.5625 9 6 C5.75 5.6875 5.75 5.6875 3 5 C3 4.67 3 4.34 3 4 C4.65 4 6.3 4 8 4 C8 3.01 8 2.02 8 1 C5.36 1 2.72 1 0 1 C0 0.67 0 0.34 0 0 Z " fill="#CDDFEB" transform="translate(988,462)"/>
<path d="M0 0 C1.4606285 2.64738916 2 3.89448334 2 7 C3.65 7 5.3 7 7 7 C7 7.66 7 8.32 7 9 C5.35 9 3.7 9 2 9 C2 10.65 2 12.3 2 14 C0.09391902 10.78817851 -0.22266247 8.46117397 -0.125 4.75 C-0.09792969 3.41195313 -0.09792969 3.41195313 -0.0703125 2.046875 C-0.04710937 1.37140625 -0.02390625 0.6959375 0 0 Z " fill="#D6D6D6" transform="translate(280,304)"/>
<path d="M0 0 C1.98 0 3.96 0 6 0 C6 1.65 6 3.3 6 5 C3.69 4.67 1.38 4.34 -1 4 C-0.67 2.68 -0.34 1.36 0 0 Z " fill="#E5F0F3" transform="translate(969,463)"/>
<path d="M0 0 C2.64 0 5.28 0 8 0 C8 1.65 8 3.3 8 5 C7.67 4.34 7.34 3.68 7 3 C5.02 3.33 3.04 3.66 1 4 C0.67 2.68 0.34 1.36 0 0 Z " fill="#1963A8" transform="translate(946,516)"/>
<path d="M0 0 C6.0546875 -0.1953125 6.0546875 -0.1953125 8 0 C8.66 0.66 9.32 1.32 10 2 C9 3 9 3 6.71484375 3.09765625 C5.34005859 3.08025391 5.34005859 3.08025391 3.9375 3.0625 C3.01839844 3.05347656 2.09929688 3.04445313 1.15234375 3.03515625 C0.44207031 3.02355469 -0.26820313 3.01195312 -1 3 C-0.67 2.01 -0.34 1.02 0 0 Z " fill="#F8FAFB" transform="translate(991,493)"/>
<path d="M0 0 C0.99 0.33 1.98 0.66 3 1 C3 2.98 3 4.96 3 7 C3.66 7 4.32 7 5 7 C5 7.66 5 8.32 5 9 C5.99 9.33 6.98 9.66 8 10 C5.125 9.6875 5.125 9.6875 2 9 C-0.29013653 5.5647952 -0.17842973 4.014669 0 0 Z " fill="#A9C4DC" transform="translate(894,512)"/>
<path d="M0 0 C0.33 0 0.66 0 1 0 C1 4.95 1 9.9 1 15 C0.67 15 0.34 15 0 15 C-0.0825 14.236875 -0.165 13.47375 -0.25 12.6875 C-1.14615794 9.47626739 -2.21611025 8.70625501 -5 7 C-3.68 7 -2.36 7 -1 7 C-0.67 4.69 -0.34 2.38 0 0 Z " fill="#EBEBEB" transform="translate(300,304)"/>
<path d="M0 0 C1.4540625 0.0309375 1.4540625 0.0309375 2.9375 0.0625 C2.9375 1.0525 2.9375 2.0425 2.9375 3.0625 C0.57796906 5.42203094 -0.84145617 5.55391413 -4.0625 6.0625 C-4.105221 4.39638095 -4.10313832 2.72867115 -4.0625 1.0625 C-3.0625 0.0625 -3.0625 0.0625 0 0 Z " fill="#474747" transform="translate(296.0625,307.9375)"/>
<path d="M0 0 C0.86625 0.495 0.86625 0.495 1.75 1 C4.19883862 2.27075898 4.19883862 2.27075898 8 2 C8.66 1.34 9.32 0.68 10 0 C10.33 0.99 10.66 1.98 11 3 C8 5 8 5 4.9375 4.875 C2 4 2 4 0.625 1.9375 C0.41875 1.298125 0.2125 0.65875 0 0 Z " fill="#C8D9E9" transform="translate(866,517)"/>
<path d="M0 0 C0.66 0.99 1.32 1.98 2 3 C0.68 4.32 -0.64 5.64 -2 7 C-2.33 6.01 -2.66 5.02 -3 4 C-4.98 4 -6.96 4 -9 4 C-9 3.67 -9 3.34 -9 3 C-8.43410156 2.86722656 -7.86820313 2.73445313 -7.28515625 2.59765625 C-6.18494141 2.33275391 -6.18494141 2.33275391 -5.0625 2.0625 C-4.33160156 1.88847656 -3.60070312 1.71445312 -2.84765625 1.53515625 C-1.00030102 1.16112431 -1.00030102 1.16112431 0 0 Z " fill="#D4E5EF" transform="translate(939,489)"/>
<path d="M0 0 C0.33 1.32 0.66 2.64 1 4 C0.34 4 -0.32 4 -1 4 C-0.6596875 4.8971875 -0.6596875 4.8971875 -0.3125 5.8125 C0 8 0 8 -1.3125 9.75 C-3 11 -3 11 -5 11 C-3.77472971 6.94718288 -2.30119506 3.55639236 0 0 Z " fill="#2A71AF" transform="translate(643,344)"/>
<path d="M0 0 C1.32 0 2.64 0 4 0 C4 1.98 4 3.96 4 6 C2.68 6 1.36 6 0 6 C0 4.02 0 2.04 0 0 Z " fill="#C9C9C9" transform="translate(349,311)"/>
<path d="M0 0 C1.32 0 2.64 0 4 0 C4.33 1.32 4.66 2.64 5 4 C2.69 4 0.38 4 -2 4 C-1.34 2.68 -0.68 1.36 0 0 Z " fill="#407CB4" transform="translate(947,510)"/>
<path d="M0 0 C2.05078125 0.03255208 4.1015625 0.06510417 6.15234375 0.09765625 C6.15234375 0.75765625 6.15234375 1.41765625 6.15234375 2.09765625 C1.69734375 2.59265625 1.69734375 2.59265625 -2.84765625 3.09765625 C-3.17765625 4.08765625 -3.50765625 5.07765625 -3.84765625 6.09765625 C-2.77957394 0.14691194 -2.77957394 0.14691194 0 0 Z " fill="#C2D4E5" transform="translate(919.84765625,503.90234375)"/>
<path d="M0 0 C1.32 0 2.64 0 4 0 C4 1.65 4 3.3 4 5 C2.68 5.33 1.36 5.66 0 6 C0 4.02 0 2.04 0 0 Z " fill="#CFCFCF" transform="translate(331,311)"/>
<path d="M0 0 C1.5625 1.75 1.5625 1.75 3 4 C2.6875 6.25 2.6875 6.25 2 8 C1.34 7.67 0.68 7.34 0 7 C0 6.34 0 5.68 0 5 C-0.66 5 -1.32 5 -2 5 C-1.125 1.125 -1.125 1.125 0 0 Z " fill="#F8FAFA" transform="translate(869,458)"/>
<path d="M0 0 C2.18975773 3.28463659 2.99806563 6.20696275 4 10 C3.38125 9.525625 2.7625 9.05125 2.125 8.5625 C0.09294454 6.97582559 0.09294454 6.97582559 -2 6 C-1.34 4.02 -0.68 2.04 0 0 Z " fill="#CDDEE8" transform="translate(868,452)"/>
<path d="M0 0 C2.0625 0.4375 2.0625 0.4375 4 1 C3.67 2.65 3.34 4.3 3 6 C2.01 6 1.02 6 0 6 C-0.38218767 4.34385343 -0.71395102 2.67542976 -1 1 C-0.67 0.67 -0.34 0.34 0 0 Z " fill="#035CA5" transform="translate(769,451)"/>
<path d="M0 0 C0.99 0.33 1.98 0.66 3 1 C2.67 1.66 2.34 2.32 2 3 C3.65 2.67 5.3 2.34 7 2 C7 2.99 7 3.98 7 5 C4.69 5 2.38 5 0 5 C0 3.35 0 1.7 0 0 Z " fill="#191919" transform="translate(282,314)"/>
<path d="M0 0 C2 2 2 2 2 6 C0.35 6.66 -1.3 7.32 -3 8 C-1.125 2.25 -1.125 2.25 0 0 Z " fill="#1C68AB" transform="translate(609,405)"/>
<path d="M0 0 C2.01822917 0.06510417 4.03645833 0.13020833 6.0546875 0.1953125 C6.0546875 0.5253125 6.0546875 0.8553125 6.0546875 1.1953125 C3.0846875 1.8553125 0.1146875 2.5153125 -2.9453125 3.1953125 C-2.9453125 4.1853125 -2.9453125 5.1753125 -2.9453125 6.1953125 C-3.6053125 6.1953125 -4.2653125 6.1953125 -4.9453125 6.1953125 C-3.78219775 0.37973873 -3.78219775 0.37973873 0 0 Z " fill="#2166A7" transform="translate(850.9453125,505.8046875)"/>
<path d="M0 0 C2.97 0 5.94 0 9 0 C9 0.66 9 1.32 9 2 C4.545 2.495 4.545 2.495 0 3 C0 2.01 0 1.02 0 0 Z " fill="#C2D4E6" transform="translate(848,504)"/>
<path d="M0 0 C1.98 0.66 3.96 1.32 6 2 C5.01 2.99 4.02 3.98 3 5 C1.35 4.01 -0.3 3.02 -2 2 C-1.34 1.34 -0.68 0.68 0 0 Z " fill="#E5E3FA" transform="translate(173,363)"/>
<path d="M0 0 C1.65 0.33 3.3 0.66 5 1 C4.67 3.31 4.34 5.62 4 8 C3.67 8 3.34 8 3 8 C3 6.35 3 4.7 3 3 C1.68 3 0.36 3 -1 3 C-0.67 2.01 -0.34 1.02 0 0 Z " fill="#323232" transform="translate(350,308)"/>
<path d="M0 0 C0.99 0.33 1.98 0.66 3 1 C2.67 2.65 2.34 4.3 2 6 C0.35 5.67 -1.3 5.34 -3 5 C-1.68 4.67 -0.36 4.34 1 4 C0.67 2.68 0.34 1.36 0 0 Z " fill="#2B6BAD" transform="translate(921,514)"/>
<path d="M0 0 C0.99 0 1.98 0 3 0 C3.66 1.98 4.32 3.96 5 6 C2.525 5.01 2.525 5.01 0 4 C0 2.68 0 1.36 0 0 Z " fill="#BCDAEB" transform="translate(862,434)"/>
<path d="M0 0 C0.33 0.66 0.66 1.32 1 2 C1.66 2 2.32 2 3 2 C2.67 2.99 2.34 3.98 2 5 C-0.5625 6.1875 -0.5625 6.1875 -3 7 C-1.125 2.25 -1.125 2.25 0 0 Z " fill="#2971B0" transform="translate(801,59)"/>
<path d="M0 0 C1.5 1.3125 1.5 1.3125 3 3 C3 3.99 3 4.98 3 6 C1.35 6 -0.3 6 -2 6 C-1.34 4.02 -0.68 2.04 0 0 Z " fill="#E3ECF2" transform="translate(816,510)"/>
<path d="M0 0 C0.33 0 0.66 0 1 0 C1 1.65 1 3.3 1 5 C0.01 5.33 -0.98 5.66 -2 6 C-2 6.99 -2 7.98 -2 9 C-2.66 9 -3.32 9 -4 9 C-2.94124926 5.59687262 -1.99097846 2.98646769 0 0 Z " fill="#1C67A8" transform="translate(626,375)"/>
<path d="M0 0 C0.66 0.33 1.32 0.66 2 1 C1.67 2.65 1.34 4.3 1 6 C-0.32 6.33 -1.64 6.66 -3 7 C-1.125 2.25 -1.125 2.25 0 0 Z " fill="#266FAF" transform="translate(790,79)"/>
<path d="M0 0 C1.37562854 1.28965176 2.70766393 2.62689293 4 4 C4 4.66 4 5.32 4 6 C2.35 5.67 0.7 5.34 -1 5 C-0.67 3.35 -0.34 1.7 0 0 Z " fill="#226CAB" transform="translate(785,503)"/>
<path d="M0 0 C0.66 0.99 1.32 1.98 2 3 C1.1875 4.9375 1.1875 4.9375 0 7 C-0.99 7.33 -1.98 7.66 -3 8 C-1.125 2.25 -1.125 2.25 0 0 Z " fill="#377BB6" transform="translate(746,498)"/>
<path d="M0 0 C0.78375 0.04125 1.5675 0.0825 2.375 0.125 C1.776875 0.3725 1.17875 0.62 0.5625 0.875 C-1.91277159 2.28944091 -2.95930804 3.85360188 -4.625 6.125 C-5.285 6.125 -5.945 6.125 -6.625 6.125 C-3.85227273 0.18344156 -3.85227273 0.18344156 0 0 Z " fill="#2A72AF" transform="translate(970.625,466.875)"/>
</svg>
